<svg width="96" height="96" viewBox="0 0 96 96" fill="none" xmlns="http://www.w3.org/2000/svg">
<g clip-path="url(#clip0_158_120)">
<path d="M66.3181 63.2265L54.0789 50.9867C50.8938 54.0073 47.5887 56.6623 44.3237 58.859L55.1365 69.6721C59.1533 68.3174 62.962 66.1689 66.3181 63.2265Z" fill="#0A2540"/>
<path d="M27.2954 41.8298L41.1556 55.6903C44.4112 53.5583 47.758 50.9088 50.967 47.8743L35.1251 32.0317C31.9693 35.3616 29.3573 38.6825 27.2954 41.8298Z" fill="#0A2540"/>
<path d="M22.8 60.1994C23.6097 61.0094 24.8655 61.4196 26.533 61.4196C29.4774 61.4196 33.2162 60.1881 37.2588 58.015L24.9689 45.7244C21.3367 52.4923 20.5817 57.9814 22.8 60.1994Z" fill="#0A2540"/>
<path d="M75.8763 48.9342L65.0723 38.1301C62.8598 41.4113 60.1953 44.7086 57.189 47.8746L69.4291 60.1154C72.3722 56.7596 74.521 52.9513 75.8763 48.9342Z" fill="#0A2540"/>
<path d="M32.0135 28.9203L19.7734 16.6794C16.8307 20.0359 14.6821 23.8442 13.3271 27.8617L24.1309 38.6654C26.3431 35.3836 29.0075 32.087 32.0135 28.9203Z" fill="#0A2540"/>
<path d="M67.4565 34.2927L77.1331 43.9693C78.5437 35.7566 76.8371 27.1182 72.0131 19.9561C72.0836 22.6738 71.3686 25.8832 69.8633 29.4517C69.1962 31.0332 68.3881 32.6539 67.4565 34.2927Z" fill="#0A2540"/>
<path d="M63.035 10.9809C55.8744 6.16115 47.2396 4.45546 39.0298 5.8654L48.7171 15.553C53.8658 12.6284 59.1054 10.9809 63.035 10.9809Z" fill="#0A2540"/>
<path d="M50.1714 70.9285L40.4854 61.2419C35.3373 64.1655 30.4613 65.8192 26.5328 65.8192C26.4102 65.8192 26.2907 65.8153 26.1704 65.8124C33.3294 70.6318 41.9632 72.3375 50.1714 70.9285Z" fill="#0A2540"/>
<path d="M19.3416 47.3419C20.0084 45.7606 20.8159 44.1409 21.7465 42.5028L12.0705 32.8262C10.6606 41.0379 12.3685 49.6753 17.1921 56.8368C17.1213 54.1194 17.8363 50.9101 19.3416 47.3419Z" fill="#0A2540"/>
<path d="M44.8786 17.9362L34.0652 7.12213C30.0481 8.47712 26.2397 10.626 22.8833 13.5684L35.1231 25.8088C38.3083 22.7879 41.6136 20.1329 44.8786 17.9362Z" fill="#0A2540"/>
<path d="M51.9438 18.7795L64.2348 31.0707C67.8682 24.3022 68.6236 18.8118 66.4053 16.5938C65.5962 15.7841 64.3398 15.3736 62.6723 15.3736C59.7273 15.3736 55.9878 16.6054 51.9438 18.7795Z" fill="#0A2540"/>
<path d="M61.9076 34.9653L48.0471 21.1045C44.7915 23.2365 41.4444 25.8861 38.2354 28.9206L54.0776 44.7635C57.2333 41.4335 59.8454 38.1127 61.9076 34.9653Z" fill="#0A2540"/>
<path d="M76.4496 70.2446C93.427 53.2671 94.0286 26.0286 78.2442 8.36431L81.2434 5.36536C82.4708 4.13805 82.4708 2.14823 81.2434 0.920914C80.0158 -0.306076 78.0266 -0.306076 76.799 0.920914L71.614 6.10621C70.3867 7.3332 70.3867 9.32302 71.614 10.5503C86.7242 25.6605 87.1389 50.667 72.0051 65.8008C64.6739 73.1326 54.9307 77.1743 44.5705 77.1818C44.5608 77.1818 44.5517 77.1818 44.5423 77.1818C34.1944 77.1811 24.3406 72.341 16.6474 65.4307C15.4682 64.3714 13.6029 64.5107 12.4564 65.6566L7.27107 70.8416C6.04376 72.0689 6.04376 74.0587 7.27107 75.286C7.88489 75.8995 8.68909 76.2066 9.49329 76.2066C10.2975 76.2066 11.1017 75.8998 11.7155 75.286L14.7775 72.224C22.5257 79.0717 32.2579 82.9922 42.6214 83.4237V89.7158H31.9285C30.1931 89.7158 28.7861 91.1228 28.7861 92.8585C28.7861 94.594 30.1931 96.001 31.9285 96.001H59.6001C61.3352 96.001 62.7426 94.5943 62.7426 92.8585C62.7426 91.1231 61.3352 89.7158 59.6001 89.7158H48.9066V83.2576C59.3092 82.2643 68.9626 77.7319 76.4496 70.2446Z" fill="#0A2540"/>
</g>
<defs>
<clipPath id="clip0_158_120">
<rect width="96" height="96" fill="white"/>
</clipPath>
</defs>
</svg>
