<svg width="96" height="96" viewBox="0 0 96 96" fill="none" xmlns="http://www.w3.org/2000/svg">
<path d="M34.5559 21.6523C38.6479 22.9316 41.9938 25.5735 44.308 29.0227L44.6308 27.182C45.8194 21.494 43.2167 15.2679 37.444 13.4649C31.6712 11.6634 25.986 15.3007 23.7253 20.6535L23.1733 21.8482C25.102 21.1819 27.1118 20.8213 29.1469 20.8213C30.9655 20.8213 32.7874 21.102 34.5559 21.6523Z" fill="#0A2540"/>
<path d="M11.314 60.3705L22.6307 49.0552C16.3812 49.0552 11.314 54.1211 11.314 60.3705Z" fill="#0A2540"/>
<path d="M51.6894 29.0165C54.0067 25.5737 57.3527 22.9318 61.4447 21.6523C63.2132 21.1018 65.0319 20.8213 66.8507 20.8213C68.8858 20.8213 70.899 21.1818 72.8272 21.8514L72.2754 20.6537C70.0145 15.3009 64.3295 11.6636 58.5566 13.4651C52.7868 15.2681 50.1812 21.4942 51.3695 27.1822L51.6894 29.0165Z" fill="#0A2540"/>
<path d="M73.3695 37.7385C62.8367 37.7385 53.9878 44.9319 51.4605 54.6731C50.9651 54.4033 50.4351 54.1965 49.8769 54.0474C50.1999 52.812 50.6171 51.6157 51.1219 50.4633L51.147 50.6154C54.9129 42.077 63.4517 36.0956 73.3699 36.0956C78.2396 36.0956 82.7771 37.5427 86.5839 40.0245L84.2227 34.9023C80.5508 26.204 71.313 20.2914 61.9309 23.2218C54.9947 25.3886 50.8776 31.4908 49.9837 38.2608C49.3661 38.0227 48.7013 37.8845 47.9989 37.8845C47.2997 37.8845 46.6316 38.0225 46.017 38.2608C45.1234 31.4908 41.0061 25.3888 34.0669 23.2218C24.6879 20.2916 15.45 26.204 11.775 34.9023L9.417 40.0245C13.2236 37.5427 17.7611 36.0956 22.6309 36.0956C32.5461 36.0956 41.0876 42.077 44.8507 50.6154L44.8789 50.4633C45.3838 51.6157 45.801 52.812 46.1239 54.0474C45.5659 54.1963 45.0326 54.4033 44.5373 54.6731C42.0098 44.9319 33.1639 37.7385 22.6311 37.7385C10.1316 37.7385 0 47.8715 0 60.3705C0 72.8679 10.1316 83.001 22.6305 83.001C32.7088 83.001 41.2442 76.4128 44.1729 67.3083C45.2861 67.9967 46.5938 68.3996 47.9985 68.3996C49.4066 68.3996 50.7109 67.9967 51.8272 67.3083C54.756 76.413 63.2914 83.001 73.3695 83.001C85.8686 83.001 96 72.8681 96 60.3705C96 47.8715 85.8686 37.7385 73.3695 37.7385ZM22.6305 75.701C14.1641 75.701 7.29994 68.8368 7.29994 60.3705C7.29994 51.9041 14.1641 45.0401 22.6305 45.0401C31.1001 45.0401 37.9611 51.9041 37.9611 60.3705C37.9611 68.8368 31.1001 75.701 22.6305 75.701ZM73.3695 75.701C64.8999 75.701 58.0391 68.8368 58.0391 60.3705C58.0391 51.9041 64.9001 45.0401 73.3695 45.0401C81.8361 45.0401 88.7002 51.9041 88.7002 60.3705C88.7002 68.8368 81.8361 75.701 73.3695 75.701Z" fill="#0A2540"/>
<path d="M62.0527 60.3705L73.3695 49.0552C67.1169 49.0552 62.0527 54.1211 62.0527 60.3705Z" fill="#0A2540"/>
</svg>
