<svg width="96" height="96" viewBox="0 0 96 96" fill="none" xmlns="http://www.w3.org/2000/svg">
<g clip-path="url(#clip0_170_242)">
<path d="M65.7949 45.3281C65.7919 45.3281 65.7874 45.3281 65.7844 45.3281L53.1832 45.3885C52.0455 42.9253 49.2714 41.5766 46.5799 42.3416C45.8902 42.5381 45.2764 42.8648 44.7373 43.2731L24.9032 25.878C24.4254 25.4561 23.6859 25.503 23.2655 25.9855C22.8422 26.4677 22.8905 27.2012 23.3728 27.6246L43.208 45.0212C42.5158 46.2718 42.2974 47.7853 42.7189 49.2686C42.864 49.7783 43.095 50.2365 43.3607 50.6659L29.5631 65.8656C28.9886 66.4976 29.0355 67.4775 29.669 68.052C29.9653 68.3213 30.3373 68.4542 30.7093 68.4542C31.1297 68.4542 31.55 68.2834 31.8555 67.9461L45.6502 52.7511C46.851 53.3408 48.2567 53.5238 49.6444 53.1291C51.2972 52.6588 52.5416 51.4854 53.1986 50.0338L65.805 49.9733C67.0888 49.9673 68.123 48.9223 68.117 47.6402C68.1114 46.3609 67.0727 45.3281 65.7949 45.3281Z" fill="#0A2540"/>
<path d="M48 0C21.5323 0 0 21.5338 0 48C0 74.4677 21.5323 96 48 96C74.4677 96 96 74.4677 96 48C96 21.5338 74.4677 0 48 0ZM77.1771 64.2776C76.9408 64.7025 76.6952 65.1199 76.4434 65.5283L81.4393 68.619C78.1232 73.9764 73.5591 78.4809 68.1521 81.7243L65.1439 76.683C64.7265 76.9324 64.3043 77.1714 63.876 77.4026L66.6632 82.5771C61.1076 85.5878 54.75 87.2994 48 87.2994C41.061 87.2994 34.5409 85.4848 28.8765 82.3155L31.7231 77.1774C31.3043 76.9431 30.8914 76.7012 30.4851 76.4531L27.4106 81.4567C22.0491 78.1451 17.5401 73.5847 14.2924 68.1789L19.3292 65.1624C19.0804 64.7466 18.8407 64.3247 18.6109 63.8983L13.4372 66.6911C10.4171 61.1295 8.70056 54.762 8.70056 48C8.70056 41.1079 10.4897 34.6271 13.6202 28.9884L15.2158 29.7733L18.7541 31.8448L18.885 31.6119C19.0959 31.2384 19.3118 30.8709 19.5341 30.5096L14.5286 27.4341C17.8367 22.0691 22.3954 17.5571 27.7976 14.3061L30.8128 19.3429C31.2302 19.0935 31.6539 18.8529 32.0807 18.6201L29.2837 13.4501C34.8517 10.4229 41.2286 8.70056 48 8.70056C54.9197 8.70056 61.4237 10.5045 67.0774 13.6588L66.1693 15.2616L64.2776 18.8241C64.6837 19.0509 65.082 19.2838 65.4759 19.5242L68.5395 14.5116C73.9078 17.8155 78.4249 22.3729 81.6812 27.7742L76.6448 30.7924C76.8969 31.2113 77.1377 31.6346 77.3694 32.0625L82.5351 29.2575C85.5729 34.8311 87.3008 41.2181 87.3008 48C87.3008 54.9058 85.5043 61.3958 82.3637 67.0403L77.1771 64.2776Z" fill="#0A2540"/>
<path d="M42.035 26.3271H44.4512V13.0978H42.035L39.3418 15.4386V18.0409L42.035 15.6987V26.3271Z" fill="#0A2540"/>
<path d="M56.6584 24.1527H51.5475L55.2462 19.8613C55.4685 19.6013 55.6695 19.3562 55.8495 19.1278C56.0295 18.898 56.1777 18.6651 56.2956 18.4307C56.4135 18.1948 56.5028 17.95 56.5649 17.6959C56.6267 17.4433 56.6586 17.1546 56.6586 16.8325C56.6586 16.2383 56.5589 15.703 56.3607 15.2252C56.1627 14.749 55.8874 14.3466 55.5336 14.017C55.1813 13.6888 54.7564 13.4348 54.262 13.2565C53.766 13.0765 53.2262 12.9857 52.644 12.9857C52.0755 12.9857 51.5447 13.0735 51.0563 13.2458C50.5664 13.4196 50.14 13.6737 49.774 14.0078C49.408 14.3419 49.1237 14.7488 48.9197 15.225C48.7155 15.7028 48.6128 16.2443 48.6128 16.8505H51.0276C51.0276 16.5283 51.0745 16.2593 51.1682 16.0431C51.2605 15.8269 51.3844 15.6531 51.5387 15.523C51.6945 15.3928 51.8669 15.2991 52.0589 15.2432C52.2509 15.1888 52.4459 15.16 52.644 15.16C53.1657 15.16 53.5619 15.3126 53.8341 15.6152C54.1064 15.9192 54.2425 16.3183 54.2425 16.8143C54.2425 17.1242 54.1896 17.3965 54.0852 17.6308C53.9794 17.8667 53.8024 18.1268 53.556 18.411L48.613 24.1525V26.3269H56.659V24.1527H56.6584Z" fill="#0A2540"/>
<path d="M82.1376 48.8649C81.8034 48.3872 81.3997 48.0257 80.9295 47.7778C81.3634 47.5419 81.7249 47.2108 82.0166 46.7829C82.3069 46.3565 82.4537 45.7835 82.4537 45.0652C82.4537 44.5072 82.3539 43.9961 82.1557 43.5319C81.9577 43.0676 81.6795 42.6684 81.3195 42.3328C80.9597 41.9987 80.5331 41.7386 80.0372 41.5526C79.5412 41.3666 79.0029 41.2744 78.4207 41.2744C77.8642 41.2744 77.3396 41.3606 76.8512 41.5344C76.3612 41.7084 75.9379 41.9563 75.5781 42.2784C75.2181 42.6005 74.9308 42.9935 74.7146 43.4578C74.4967 43.922 74.382 44.4512 74.3698 45.0455H76.7861C76.8103 44.5389 76.9751 44.1459 77.2776 43.8662C77.5815 43.5879 77.9625 43.4488 78.4207 43.4488C78.8546 43.4488 79.2328 43.5909 79.5547 43.8752C79.8769 44.1609 80.037 44.5813 80.037 45.1393C80.037 45.6095 79.9069 46.0027 79.647 46.3187C79.3869 46.6346 78.9606 46.7934 78.3647 46.7934H78.0124V48.8923H78.3647C78.9606 48.8923 79.4186 49.0571 79.7407 49.3852C80.0629 49.7134 80.223 50.1564 80.223 50.7127C80.223 51.3086 80.0567 51.7637 79.7211 52.0796C79.3869 52.3942 78.9606 52.5529 78.4387 52.5529C78.2044 52.5529 77.9775 52.518 77.7613 52.4501C77.5451 52.382 77.3559 52.2776 77.1943 52.134C77.034 51.9919 76.9041 51.8119 76.8043 51.5957C76.7046 51.3793 76.65 51.1224 76.638 50.8245H74.2217C74.2337 51.5186 74.3578 52.1098 74.5937 52.5997C74.8281 53.0882 75.141 53.4904 75.5312 53.8063C75.9212 54.1224 76.3674 54.3553 76.8694 54.5034C77.3715 54.6515 77.8946 54.7273 78.4389 54.7273C79.0089 54.7273 79.5487 54.6455 80.0569 54.4854C80.5635 54.3236 81.0096 54.0802 81.3936 53.7504C81.7776 53.4223 82.0815 53.0111 82.3039 52.5152C82.5277 52.0207 82.6395 51.4445 82.6395 50.7868C82.6397 49.9822 82.4719 49.3412 82.1376 48.8649Z" fill="#0A2540"/>
<path d="M51.0559 77.3318C50.7278 76.9977 50.3558 76.7406 49.9414 76.5606C49.5255 76.3806 49.0961 76.2915 48.6501 76.2915C48.4883 76.2915 48.3249 76.3035 48.1571 76.3294C47.9908 76.3536 47.826 76.3975 47.6657 76.4595L50.4148 70.9963H47.7761L44.9893 76.7196C44.6914 77.326 44.4313 77.9142 44.2091 78.4843C43.9867 79.0543 43.875 79.6425 43.875 80.2489C43.875 80.9066 43.9793 81.4888 44.1911 81.9953C44.4013 82.5034 44.6916 82.9313 45.0636 83.2776C45.4356 83.6254 45.8724 83.8885 46.3746 84.067C46.875 84.247 47.4178 84.3377 48 84.3377C48.5822 84.3377 49.1235 84.244 49.6254 84.058C50.1276 83.872 50.5644 83.6029 50.9349 83.2506C51.3069 82.8968 51.5972 82.4672 51.8089 81.9593C52.0191 81.4511 52.125 80.8692 52.125 80.2129C52.125 79.605 52.0282 79.0577 51.8362 78.5678C51.6442 78.0786 51.384 77.6659 51.0559 77.3318ZM49.2263 81.6608C48.9041 81.9949 48.4944 82.1629 48 82.1629C47.5041 82.1629 47.0959 81.9951 46.7738 81.6608C46.4516 81.3266 46.29 80.8504 46.29 80.2303C46.29 79.6103 46.4518 79.134 46.7738 78.7999C47.0959 78.4658 47.5041 78.298 48 78.298C48.5201 78.298 48.9345 78.4718 49.2444 78.8181C49.5544 79.1659 49.7087 79.6361 49.7087 80.2303C49.7087 80.8504 49.5484 81.3266 49.2263 81.6608Z" fill="#0A2540"/>
<path d="M20.745 42.3885C20.373 42.0424 19.9376 41.7791 19.4355 41.5991C18.9336 41.4191 18.3922 41.3301 17.8101 41.3301C17.2264 41.3301 16.6851 41.4223 16.1829 41.6083C15.6825 41.7943 15.2454 42.0636 14.8734 42.4174C14.5014 42.7697 14.2112 43.2036 14.001 43.7177C13.7893 44.2318 13.6851 44.811 13.6851 45.4551C13.6851 46.075 13.7833 46.6255 13.9813 47.1077C14.1793 47.5915 14.4396 47.9998 14.7617 48.334C15.0838 48.6696 15.4558 48.9266 15.8777 49.1051C16.2981 49.2851 16.7319 49.3759 17.178 49.3759C17.3383 49.3759 17.5031 49.3637 17.6694 49.338C17.8372 49.3138 18.0021 49.2699 18.1624 49.2079L15.4119 54.6711H18.0324L20.8389 48.9478C21.1352 48.3415 21.3924 47.7533 21.6101 47.1833C21.8263 46.6133 21.9352 46.0249 21.9352 45.4172C21.9352 44.761 21.8293 44.1788 21.6191 43.6706C21.4072 43.1629 21.117 42.7365 20.745 42.3885ZM19.0363 46.8675C18.7142 47.2016 18.3043 47.3696 17.8101 47.3696C17.2899 47.3696 16.8741 47.1956 16.5641 46.848C16.2542 46.5017 16.0999 46.0315 16.0999 45.4373C16.0999 44.8172 16.2602 44.341 16.5838 44.0053C16.9059 43.6712 17.3141 43.5047 17.8101 43.5047C18.3045 43.5047 18.7142 43.671 19.0363 44.0053C19.3584 44.341 19.5186 44.8172 19.5186 45.4373C19.5187 46.0555 19.3584 46.5334 19.0363 46.8675Z" fill="#0A2540"/>
</g>
<defs>
<clipPath id="clip0_170_242">
<rect width="96" height="96" fill="white"/>
</clipPath>
</defs>
</svg>
