<svg width="96" height="96" viewBox="0 0 96 96" fill="none" xmlns="http://www.w3.org/2000/svg">
<path d="M0 46.2455L0.106718 49.5537C0.341496 56.7785 2.90272 63.8112 7.53426 69.8728C11.9737 75.6889 18.1633 80.4591 25.4521 83.6713C27.0743 84.3863 28.9632 83.65 29.6675 82.0279C30.3825 80.4058 29.6461 78.5169 28.024 77.8125C21.7277 75.0379 16.4025 70.9506 12.614 65.9882C9.51921 61.933 7.54493 57.3761 6.80858 52.6485H88.1914C87.4444 57.4295 85.4381 62.029 82.2793 66.127C78.4268 71.1214 73.0162 75.2193 66.6131 77.962C64.991 78.6556 64.244 80.5445 64.9377 82.1666C65.4606 83.3832 66.6345 84.1089 67.8831 84.1089C68.3099 84.1089 68.7368 84.0235 69.1423 83.8528C84.563 77.2149 94.4344 64.078 94.8933 49.5537L95 46.2455H0Z" fill="#0A2540"/>
<path d="M55.9947 78.9117H39.0266C35.2702 78.9117 32.186 81.9852 32.186 85.7523C32.186 89.5195 35.2595 92.5929 39.0266 92.5929H55.9947C59.7512 92.5929 62.8353 89.5195 62.8353 85.7523C62.8353 81.9852 59.7512 78.9117 55.9947 78.9117ZM55.9947 86.1792H39.0266C38.8025 86.1792 38.5891 85.9658 38.5891 85.7417C38.5891 85.5176 38.8025 85.3041 39.0266 85.3041H55.9947C56.2188 85.3041 56.4323 85.5176 56.4323 85.7417C56.4323 85.9658 56.2188 86.1792 55.9947 86.1792Z" fill="#0A2540"/>
<path d="M45.9845 33.386C44.96 31.9453 42.9537 31.6145 41.513 32.6496C40.0724 33.6741 39.7415 35.6804 40.7767 37.1211C41.9292 38.7325 42.5482 40.6428 42.5482 42.6384C42.5482 44.4099 43.9782 45.8399 45.7497 45.8399C47.5212 45.8399 48.9513 44.4099 48.9513 42.6384C48.9513 39.2875 47.9268 36.0859 45.9845 33.386ZM38.9732 27.8687C37.0843 27.111 35.0993 26.7268 33.0503 26.7268C24.2781 26.7268 17.1494 33.8555 17.1494 42.6277C17.1494 44.3992 18.5794 45.8293 20.3509 45.8293C22.1225 45.8293 23.5525 44.3992 23.5525 42.6277C23.5525 37.3879 27.8105 33.1299 33.0503 33.1299C34.2776 33.1299 35.4622 33.354 36.5827 33.8129C38.2261 34.4745 40.083 33.6741 40.7447 32.0307C41.4063 30.3872 40.6166 28.5197 38.9732 27.8687Z" fill="#0A2540"/>
<path d="M51.4592 22.8423C46.4755 17.976 39.9657 15.2867 33.1251 15.2867C26.2845 15.2867 19.7747 17.9653 14.791 22.8423C9.87136 27.6553 6.89393 34.1544 6.40303 41.1337C6.27497 42.8945 7.60894 44.4313 9.36978 44.5487C11.1306 44.6661 12.6674 43.3428 12.7847 41.5819C13.1583 36.1607 15.4634 31.1343 19.2625 27.4205C23.0403 23.7281 27.96 21.6898 33.1251 21.6898C38.2796 21.6898 43.2099 23.7281 46.9877 27.4205C50.7869 31.1343 53.0813 36.1607 53.4655 41.5819C53.5829 43.2681 54.9915 44.5593 56.6563 44.5593C56.731 44.5593 56.8058 44.5593 56.8805 44.5487C58.6413 44.4206 59.9753 42.8945 59.8472 41.1337C59.3563 34.1544 56.3789 27.6553 51.4592 22.8423ZM88.3515 34.7093C87.1242 32.639 85.3954 30.8034 83.2184 29.2454L88.9704 23.0237C90.1657 21.7218 90.091 19.6941 88.789 18.4989C87.4871 17.3037 85.4594 17.3784 84.2642 18.6803L77.3275 26.1932C76.794 26.0012 76.2497 25.8197 75.6948 25.6597L84.4883 8.67022C85.2994 7.10147 84.6911 5.16988 83.1116 4.35883C81.5429 3.54777 79.6113 4.15606 78.8002 5.73548L69.0676 24.5498C68.4807 24.5178 67.883 24.4964 67.2854 24.4964C64.9483 24.4964 62.6432 24.7526 60.4235 25.2648C58.7053 25.6597 57.6275 27.3778 58.0223 29.1066C58.4172 30.8248 60.1353 31.9026 61.8642 31.5078C63.6037 31.1023 65.4285 30.8995 67.2747 30.8995C71.9276 30.8995 76.2604 32.1588 79.4726 34.4532C82.3646 36.5128 83.9547 39.1488 83.9547 41.8701C83.9547 43.6416 85.3847 45.0716 87.1562 45.0716C88.9277 45.0716 90.3578 43.6416 90.3578 41.8701C90.3578 39.3622 89.6854 36.9504 88.3515 34.7093Z" fill="#0A2540"/>
</svg>
