<svg width="96" height="96" viewBox="0 0 96 96" fill="none" xmlns="http://www.w3.org/2000/svg">
<path d="M47.5 91C71.5244 91 91 71.5244 91 47.5C91 23.4756 71.5244 4 47.5 4C23.4756 4 4 23.4756 4 47.5C4 71.5244 23.4756 91 47.5 91Z" stroke="#0A2540" stroke-width="8" stroke-linecap="round" stroke-linejoin="round"/>
<path d="M14.6519 35.0707C21.2228 35.0707 21.2228 59.9293 27.792 59.9293C34.3612 59.9293 34.3595 35.0707 40.9287 35.0707C47.4979 35.0707 47.4997 59.9293 54.0689 59.9293C60.6381 59.9293 60.6381 35.0707 67.2073 35.0707C73.7765 35.0707 73.7765 59.9293 80.3475 59.9293" stroke="#0A2540" stroke-width="8" stroke-linecap="round" stroke-linejoin="round"/>
</svg>
