<svg width="96" height="96" viewBox="0 0 96 96" fill="none" xmlns="http://www.w3.org/2000/svg">
<g clip-path="url(#clip0_170_407)">
<path d="M39 6C37.3359 6 36 7.33594 36 9V15C36 16.6641 37.3359 18 39 18H45C46.6641 18 48 16.6641 48 15V9C48 7.33594 46.6641 6 45 6H39ZM16.5469 15.2812C15.7734 15.2812 15.0234 15.5859 14.4375 16.1953L10.1953 20.4375C9 21.6094 9 23.4844 10.1953 24.6562L14.4375 28.8984C15.6094 30.0937 17.4844 30.0937 18.6797 28.8984L22.9219 24.6562C24.0938 23.4844 24.0938 21.6094 22.9219 20.4375L18.6797 16.1953C18.0703 15.5859 17.3203 15.2812 16.5469 15.2812ZM67.4531 15.2812C66.6797 15.2812 65.9297 15.5859 65.3203 16.1953L61.0781 20.4375C59.9063 21.6094 59.9063 23.4844 61.0781 24.6562L65.3203 28.8984C66.5156 30.0937 68.3906 30.0937 69.5625 28.8984L73.8047 24.6562C75 23.4844 75 21.6094 73.8047 20.4375L69.5625 16.1953C68.9766 15.5859 68.2266 15.2812 67.4531 15.2812ZM41.9297 24.0234C28.7578 24.0234 17.9297 34.875 17.9297 48.0234C17.9297 56.3438 22.2422 63.6797 28.7578 67.9922C30.6563 67.1719 32.7188 66.6328 34.875 66.4688C38.5312 55.7578 48.3047 48.0234 60 48C62.0391 48 64.0078 48.2812 65.8828 48.7734C65.9062 48.5156 65.9297 48.2812 65.9297 48.0234C65.9297 34.875 55.1016 24.0234 41.9297 24.0234ZM3 42C1.33594 42 0 43.3359 0 45V51C0 52.6641 1.33594 54 3 54H9C10.6641 54 12 52.6641 12 51V45C12 43.3359 10.6641 42 9 42H3ZM75 42C73.3359 42 72 43.3359 72 45V51C72 51.1172 72.0234 51.2109 72.0469 51.3281C73.3594 52.1016 74.625 53.0156 75.8203 54H81C82.6641 54 84 52.6641 84 51V45C84 43.3359 82.6641 42 81 42H75ZM60 54C49.4062 54.0234 40.4766 61.9219 39.1875 72.4453C38.1328 72.1406 37.0781 72 36 72C29.3672 72 24 77.3672 24 84C24 90.6328 29.3672 96 36 96H81C89.2734 96 96 89.2734 96 81C96 72.7266 89.2734 66 81 66C80.3438 66 79.6875 66.0469 79.0312 66.1406C75.5859 58.7344 68.1562 54 60 54ZM16.5469 66.2109C15.7734 66.2109 15.0234 66.4922 14.4375 67.1016L10.1953 71.3438C9 72.5156 9 74.3906 10.1953 75.5625L14.4375 79.8047C15.5391 80.9297 17.3203 80.9766 18.4922 79.9453C19.2656 76.7578 20.9297 73.9453 23.2031 71.7188C23.1328 71.5781 23.0156 71.4375 22.9219 71.3438L18.6797 67.1016C18.0703 66.4922 17.3203 66.2109 16.5469 66.2109Z" fill="#0A2540"/>
</g>
<defs>
<clipPath id="clip0_170_407">
<rect width="96" height="96" fill="white"/>
</clipPath>
</defs>
</svg>
