<svg width="13" height="16" viewBox="0 0 13 16" fill="none" xmlns="http://www.w3.org/2000/svg">
<path d="M5.59439 8.00422C5.48677 8.00409 5.38041 7.98103 5.28239 7.9366C5.18437 7.89216 5.09694 7.82736 5.02591 7.74651C4.95572 7.66629 4.90324 7.57218 4.8719 7.4703C4.84055 7.36843 4.83104 7.26109 4.844 7.15529C5.15476 4.67672 7.06486 2.72887e-05 12.0902 2.72887e-05C12.2753 -0.00154236 12.4545 0.0646509 12.5942 0.186126C12.7338 0.3076 12.8241 0.475962 12.8482 0.659464C13.0413 2.51948 12.497 4.38101 11.3322 5.844C10.0361 7.28415 8.11844 8.00422 5.59439 8.00422ZM11.355 1.55387C8.12602 1.94044 6.936 4.92685 6.53428 6.48828C7.90686 6.44271 9.20831 5.8667 10.165 4.88137C10.9286 3.9428 11.3485 2.77141 11.355 1.56145V1.55387Z" fill="#025B02"/>
<path d="M5.59386 8.00427H5.50291C3.60039 7.76172 1.97925e-05 6.29125 1.97925e-05 2.41043C-0.00132528 2.22422 0.0659289 2.04402 0.188953 1.90422C0.311976 1.76442 0.482159 1.6748 0.667036 1.65246C2.10915 1.50806 3.55002 1.93841 4.67671 2.85006C5.26053 3.41568 5.71312 4.10252 6.00256 4.86213C6.29199 5.62173 6.41122 6.43559 6.35184 7.2463C6.35184 7.44733 6.27198 7.64012 6.12983 7.78227C5.98768 7.92441 5.79489 8.00427 5.59386 8.00427ZM1.58418 3.16083C1.94801 5.10882 3.67619 5.94259 4.77525 6.28367C4.69954 5.41833 4.31159 4.61009 3.68377 4.00976C3.09177 3.51107 2.35642 3.21375 1.58418 3.16083Z" fill="#025B02"/>
<path d="M5.59391 11.173C5.39288 11.173 5.20009 11.0931 5.05794 10.951C4.91579 10.8088 4.83594 10.616 4.83594 10.415V7.24668C4.83594 7.04565 4.91579 6.85286 5.05794 6.71071C5.20009 6.56857 5.39288 6.48871 5.59391 6.48871C5.79494 6.48871 5.98773 6.56857 6.12988 6.71071C6.27203 6.85286 6.35188 7.04565 6.35188 7.24668V10.4074C6.35289 10.5076 6.33402 10.607 6.29638 10.6998C6.25873 10.7927 6.20306 10.8771 6.13258 10.9483C6.06209 11.0195 5.97819 11.076 5.88574 11.1146C5.79328 11.1531 5.69409 11.173 5.59391 11.173Z" fill="#025B02"/>
<path d="M7.60926 16.0001H3.88004C3.07593 16.0001 2.30476 15.6806 1.73616 15.112C1.16757 14.5434 0.848145 13.7723 0.848145 12.9682V10.4138C0.848145 10.2128 0.928002 10.02 1.07015 9.87783C1.2123 9.73568 1.40509 9.65582 1.60612 9.65582H9.88318C10.0842 9.65582 10.277 9.73568 10.4192 9.87783C10.5613 10.02 10.6412 10.2128 10.6412 10.4138V12.9682C10.6412 13.7723 10.3217 14.5434 9.75314 15.112C9.18455 15.6806 8.41337 16.0001 7.60926 16.0001ZM2.36409 11.1718V12.9682C2.36409 13.3702 2.52381 13.7558 2.8081 14.0401C3.0924 14.3244 3.47798 14.4841 3.88004 14.4841H7.60926C8.01132 14.4841 8.3969 14.3244 8.6812 14.0401C8.96549 13.7558 9.12521 13.3702 9.12521 12.9682V11.1718H2.36409Z" fill="#025B02"/>
</svg>
