<svg width="24" height="24" viewBox="0 0 24 24" fill="none" xmlns="http://www.w3.org/2000/svg">
<g clip-path="url(#clip0_172_961)">
<path d="M6.22223 4.96531C2.73599 4.96531 -0.1 7.8013 -0.1 11.2875C-0.1 12.9473 0.673036 15.3531 1.86122 17.422L1.94794 17.3722L1.86122 17.422C2.539 18.6019 3.2721 19.5351 4.01206 20.1745C4.75111 20.8131 5.50509 21.1653 6.22223 21.1653C6.93938 21.1653 7.69335 20.8131 8.43241 20.1745C9.17237 19.5351 9.90547 18.6019 10.5832 17.422L10.4965 17.3722L10.5832 17.422C11.7714 15.3531 12.5444 12.9472 12.5444 11.2875C12.5445 7.8013 9.70843 4.96531 6.22223 4.96531ZM6.22223 20.0764C5.77881 20.0764 5.22823 19.7778 4.64178 19.2412C4.0597 18.7085 3.45891 17.9567 2.91633 17.0855C1.82987 15.3408 0.988891 13.1371 0.988891 11.2875C0.988891 8.40202 3.33648 6.0542 6.22223 6.0542C9.10799 6.0542 11.4556 8.40202 11.4556 11.2875C11.4556 13.1371 10.6146 15.3408 9.52812 17.0855C8.98554 17.9567 8.38476 18.7085 7.80268 19.2412C7.21623 19.7778 6.66566 20.0764 6.22223 20.0764Z" fill="#0A2540" stroke="#0A2540" stroke-width="0.2"/>
<path d="M6.22242 8.07645C4.4519 8.07645 3.01133 9.51683 3.01133 11.2875C3.01133 13.0583 4.45195 14.4986 6.22242 14.4986C7.9929 14.4986 9.43352 13.0583 9.43352 11.2875C9.43352 9.51683 7.9929 8.07645 6.22242 8.07645ZM6.22242 13.4097C5.05239 13.4097 4.10022 12.4575 4.10022 11.2875C4.10022 10.1175 5.05243 9.16534 6.22242 9.16534C7.39246 9.16534 8.34462 10.1175 8.34462 11.2875C8.34462 12.4576 7.39246 13.4097 6.22242 13.4097Z" fill="#0A2540" stroke="#0A2540" stroke-width="0.2"/>
<path d="M19.5558 0.52085C17.05 0.52085 15.0113 2.5593 15.0113 5.0653C15.0113 5.64213 15.1847 6.35158 15.4672 7.08683C15.7503 7.82359 16.1457 8.59309 16.5957 9.29188C17.0454 9.99025 17.5519 10.6214 18.0588 11.0792C18.5618 11.5335 19.0814 11.832 19.5558 11.832C20.0302 11.832 20.5498 11.5335 21.0528 11.0792C21.5596 10.6214 22.0662 9.99025 22.5159 9.29188C22.9659 8.59309 23.3612 7.82359 23.6443 7.08683C23.9268 6.35158 24.1002 5.64213 24.1002 5.0653C24.1002 2.55935 22.0615 0.52085 19.5558 0.52085ZM19.5558 10.7431C19.4682 10.7431 19.3451 10.6987 19.1893 10.5982C19.0362 10.4994 18.8627 10.3537 18.6771 10.169C18.3061 9.79985 17.8951 9.28315 17.5117 8.69827C17.1285 8.11364 16.7748 7.46374 16.5172 6.82924C16.2591 6.19337 16.1002 5.57963 16.1002 5.0653C16.1002 3.16003 17.6505 1.60974 19.5558 1.60974C21.4611 1.60974 23.0113 3.16003 23.0113 5.0653C23.0113 5.57963 22.8525 6.19337 22.5944 6.82924C22.3368 7.46374 21.9831 8.11364 21.5999 8.69827C21.2165 9.28316 20.8055 9.79985 20.4345 10.169C20.2489 10.3537 20.0754 10.4994 19.9223 10.5982C19.7665 10.6987 19.6434 10.7431 19.5558 10.7431Z" fill="#0A2540" stroke="#0A2540" stroke-width="0.2"/>
<path d="M20.789 5.06533V5.06534C20.7891 5.74529 20.2357 6.29864 19.5557 6.29864C18.8757 6.29864 18.3224 5.74533 18.3224 5.06533C18.3224 4.38532 18.8757 3.83202 19.5557 3.83202C20.2357 3.83202 20.789 4.38532 20.789 5.06533ZM19.5557 2.74308C18.2752 2.74308 17.2335 3.78479 17.2335 5.06528C17.2335 6.34578 18.2753 7.38748 19.5557 7.38748C20.8362 7.38748 21.8779 6.34573 21.8779 5.06528C21.878 3.78478 20.8362 2.74308 19.5557 2.74308Z" fill="#0A2540" stroke="#0A2540" stroke-width="0.2"/>
<path d="M14.5423 15.6765C14.4968 16.5248 14.8773 17.2833 15.651 17.928C16.47 18.6106 17.103 19.2944 17.5013 19.9003C17.7004 20.2032 17.8391 20.484 17.9141 20.7333C17.9892 20.983 17.9984 21.1947 17.9474 21.3643C17.861 21.6513 17.5855 21.864 17.2014 22.018C16.821 22.1706 16.3581 22.2556 15.9397 22.3021C12.1579 22.7229 9.15577 21.4759 9.10208 21.4535C8.82496 21.335 8.50614 21.4644 8.38829 21.7403L8.38828 21.7403C8.27032 22.0166 8.39779 22.3362 8.67421 22.4546C8.79284 22.5056 11.109 23.4792 14.3331 23.4792C14.8838 23.4792 15.4622 23.4508 16.0599 23.3842C17.6847 23.2037 18.6991 22.645 18.9901 21.6778L18.9901 21.6777C19.2451 20.8293 18.8642 19.9211 18.2948 19.1185C17.7224 18.3117 16.9418 17.5862 16.3485 17.0916L16.3485 17.0916C15.8284 16.6585 15.6044 16.2161 15.6295 15.7359L15.6296 15.7359C15.6581 15.1897 16.0138 14.6184 16.4465 14.1287C16.8764 13.6422 17.3671 13.2534 17.6357 13.0736L17.6357 13.0735C17.885 12.9064 17.9526 12.5686 17.7856 12.3187C17.6188 12.0687 17.2801 12.0005 17.0308 12.1681L17.0865 12.2511L17.0312 12.1679C16.9802 12.2018 16.3868 12.6026 15.7927 13.2292C15.2014 13.853 14.5935 14.7169 14.5423 15.6765ZM14.5423 15.6765L14.6421 15.6819M14.5423 15.6765C14.5423 15.6766 14.5423 15.6766 14.5423 15.6766L14.6421 15.6819M14.6421 15.6819C14.5987 16.4918 14.9598 17.2218 15.715 17.8512C17.3631 19.2247 18.2771 20.6148 18.0432 21.3931L14.6421 15.6819Z" fill="#0A2540" stroke="#0A2540" stroke-width="0.2"/>
</g>
<defs>
<clipPath id="clip0_172_961">
<rect width="24" height="24" fill="white"/>
</clipPath>
</defs>
</svg>
