<svg width="24" height="24" viewBox="0 0 24 24" fill="none" xmlns="http://www.w3.org/2000/svg">
<path d="M19.2715 16.1369C20.817 14.5914 21.5898 13.8186 21.8774 12.816C22.1649 11.8134 21.9192 10.7485 21.4277 8.61875L21.1443 7.39057C20.7308 5.59881 20.524 4.70292 19.9106 4.08944C19.2971 3.47597 18.4012 3.26922 16.6094 2.85574L15.3812 2.57231C13.2515 2.08083 12.1866 1.83509 11.184 2.12264C10.1814 2.41018 9.4086 3.18295 7.8631 4.72848L6.0335 6.55812C3.3445 9.24711 2 10.5916 2 12.2623C2 13.933 3.3445 15.2775 6.0335 17.9665C8.7225 20.6555 10.067 22 11.7377 22C13.4084 22 14.7529 20.6555 17.4419 17.9665L19.2715 16.1369Z" stroke="#0A2540" stroke-width="1.5"/>
<path d="M12.3893 15.389C12.9751 14.8032 13.0542 13.9326 12.5661 13.4444C12.0779 12.9563 11.2073 13.0354 10.6215 13.6212C10.0358 14.207 9.16519 14.2862 8.67699 13.798C8.18879 13.3098 8.26799 12.4392 8.85379 11.8535M12.3893 15.389L12.7429 15.7425M12.3893 15.389C11.9883 15.79 11.4539 15.9536 11 15.8603M8.85379 11.8535L8.50019 11.4999M8.85379 11.8535C9.18499 11.5222 9.60729 11.353 9.99999 11.3567" stroke="#0A2540" stroke-width="1.5" stroke-linecap="round"/>
<path d="M17.0214 9.293C17.8025 8.51195 17.8025 7.24562 17.0214 6.46457C16.2404 5.68352 14.9741 5.68352 14.193 6.46457C13.412 7.24562 13.412 8.51195 14.193 9.293C14.9741 10.074 16.2404 10.074 17.0214 9.293Z" stroke="#0A2540" stroke-width="1.5"/>
</svg>
