<svg width="36" height="36" viewBox="0 0 36 36" fill="none" xmlns="http://www.w3.org/2000/svg">
<path d="M25.5 10.875C24.8787 10.875 24.375 11.3787 24.375 12V24C24.375 24.6213 24.8787 25.125 25.5 25.125C26.1213 25.125 26.625 24.6213 26.625 24V12C26.625 11.3787 26.1213 10.875 25.5 10.875Z" fill="white"/>
<path d="M9.375 18C9.375 18.6213 9.8787 19.125 10.5 19.125H18.2839L15.7045 21.7045C15.2652 22.1439 15.2652 22.8561 15.7045 23.2954C16.1439 23.7348 16.8561 23.7348 17.2955 23.2954L21.7955 18.7954C22.0065 18.5845 22.125 18.2983 22.125 18C22.125 17.7016 22.0065 17.4154 21.7955 17.2045L17.2955 12.7045C16.8561 12.2652 16.1439 12.2652 15.7045 12.7045C15.2652 13.1438 15.2652 13.8562 15.7045 14.2955L18.2839 16.875H10.5C9.8787 16.875 9.375 17.3787 9.375 18Z" fill="white"/>
<path fill-rule="evenodd" clip-rule="evenodd" d="M18.0861 1.875C21.5487 1.87499 24.2622 1.87497 26.3794 2.15963C28.5465 2.45099 30.2566 3.059 31.5988 4.40121C32.941 5.74343 33.549 7.45345 33.8404 9.62057C34.125 11.7378 34.125 14.4513 34.125 17.9139V18.0861C34.125 21.5487 34.125 24.2622 33.8404 26.3794C33.549 28.5465 32.941 30.2567 31.5988 31.5989C30.2566 32.9411 28.5465 33.549 26.3794 33.8405C24.2622 34.125 21.5487 34.125 18.0861 34.125H17.9139C14.4513 34.125 11.7378 34.125 9.62055 33.8405C7.4535 33.549 5.74335 32.9411 4.40115 31.5989C3.05895 30.2567 2.451 28.5465 2.15955 26.3794C1.875 24.2622 1.875 21.5487 1.875 18.0861V17.9139C1.875 14.4513 1.875 11.7378 2.15955 9.62057C2.451 7.45345 3.05895 5.74343 4.40115 4.40121C5.74335 3.059 7.4535 2.45099 9.62055 2.15963C11.7378 1.87497 14.4513 1.87499 17.9139 1.875H18.0861ZM30.0078 5.9922C29.1533 5.13771 27.9972 4.64738 26.0796 4.38955C24.1297 4.12739 21.5673 4.125 18 4.125C14.4327 4.125 11.8704 4.12739 9.9204 4.38955C8.0028 4.64738 6.84675 5.13771 5.9922 5.9922C5.13765 6.84668 4.6473 8.00276 4.3896 9.92037C4.1274 11.8703 4.125 14.4327 4.125 18C4.125 21.5673 4.1274 24.1296 4.3896 26.0796C4.6473 27.9972 5.13765 29.1532 5.9922 30.0078C6.84675 30.8623 8.0028 31.3527 9.9204 31.6104C11.8704 31.8726 14.4327 31.875 18 31.875C21.5673 31.875 24.1297 31.8726 26.0796 31.6104C27.9972 31.3527 29.1533 30.8623 30.0078 30.0078C30.8623 29.1532 31.3526 27.9972 31.6104 26.0796C31.8726 24.1296 31.875 21.5673 31.875 18C31.875 14.4327 31.8726 11.8703 31.6104 9.92037C31.3526 8.00276 30.8623 6.84668 30.0078 5.9922Z" fill="white"/>
</svg>
