<svg width="36" height="36" viewBox="0 0 36 36" fill="none" xmlns="http://www.w3.org/2000/svg">
<path fill-rule="evenodd" clip-rule="evenodd" d="M8.68119 21.0294C8.74685 21.0516 8.81312 21.0672 8.87932 21.0768C8.95154 21.2466 9.04482 21.466 9.15366 21.7227C9.41927 22.3491 9.77715 23.1964 10.1466 24.0802C10.8999 25.8828 11.6599 27.7408 11.8277 28.2727C12.0355 28.9302 12.2551 29.3772 12.4948 29.6824C12.6188 29.8403 12.7622 29.9779 12.9299 30.0823C13.0144 30.1348 13.1036 30.1779 13.1967 30.21C13.2008 30.2115 13.2049 30.2128 13.209 30.2142C13.689 30.3954 14.1267 30.32 14.4007 30.2277C14.5473 30.1782 14.6659 30.1187 14.75 30.0704C14.7929 30.0456 14.8291 30.0226 14.858 30.0032L14.8648 29.9986L19.104 27.3549L24.0009 31.1091C24.0731 31.1645 24.152 31.211 24.2354 31.2474C24.8237 31.5041 25.3934 31.5936 25.9292 31.5204C26.4642 31.4473 26.8889 31.2227 27.2051 30.9696C27.5147 30.722 27.7247 30.4444 27.8553 30.2383C27.9221 30.133 27.9722 30.0399 28.0076 29.9686C28.0253 29.9328 28.0395 29.9019 28.0506 29.8772L28.0647 29.8444L28.0701 29.8315L28.0724 29.8261L28.0733 29.8236L28.0743 29.8212C28.1 29.7569 28.1198 29.6902 28.1333 29.6223L32.6036 7.08411C32.6178 7.01204 32.625 6.93871 32.625 6.86523C32.625 6.20521 32.3763 5.57761 31.7916 5.19678C31.2918 4.87128 30.735 4.85727 30.3833 4.88397C30.0036 4.91278 29.6531 5.00649 29.4179 5.08135C29.2955 5.12032 29.1927 5.15791 29.1188 5.18659C29.0816 5.20101 29.0511 5.21338 29.0283 5.22282L29.0114 5.22999L3.94076 15.0648L3.93752 15.066C3.92154 15.0718 3.90102 15.0795 3.87665 15.089C3.82811 15.1079 3.76305 15.1344 3.68708 15.1689C3.53891 15.2361 3.33104 15.341 3.11772 15.4871C2.77694 15.7205 1.9932 16.3596 2.12517 17.4146C2.23046 18.2562 2.80703 18.7731 3.15831 19.0217C3.35119 19.1581 3.53445 19.2557 3.66791 19.3193C3.72981 19.3487 3.85836 19.4008 3.91413 19.4236L3.92822 19.4293L8.68119 21.0294ZM29.8887 7.30179L29.8853 7.30332C29.8727 7.30875 29.8602 7.31394 29.8475 7.31892L4.74648 17.1657C4.73337 17.1708 4.72017 17.1757 4.70688 17.1804L4.69292 17.1856C4.67685 17.1919 4.64982 17.2029 4.61589 17.2182C4.59665 17.2269 4.57656 17.2365 4.55609 17.2467C4.58421 17.2626 4.61114 17.2762 4.63506 17.2876C4.65803 17.2986 4.67555 17.3061 4.68513 17.31L9.39908 18.897C9.48535 18.9261 9.56578 18.9645 9.63962 19.011L25.2048 9.89922L25.2194 9.89061C25.2306 9.8839 25.2456 9.87529 25.2635 9.8652C25.2989 9.84517 25.3475 9.81852 25.4054 9.78905C25.5134 9.73407 25.6863 9.65245 25.881 9.59227C26.0165 9.55038 26.4162 9.43234 26.8484 9.57096C27.1151 9.65651 27.3912 9.84042 27.5709 10.152C27.66 10.3068 27.7076 10.4622 27.7307 10.6046C27.7919 10.8288 27.7821 11.0502 27.7343 11.2414C27.6311 11.6531 27.3419 11.9743 27.0786 12.22C26.853 12.4306 23.9349 15.2444 21.0563 18.022C19.6206 19.4072 18.1998 20.7788 17.1377 21.8039L16.4402 22.4774L25.248 29.23C25.4501 29.3024 25.5695 29.2987 25.6247 29.2911C25.6905 29.2821 25.7444 29.2568 25.7994 29.2128C25.8609 29.1636 25.9148 29.097 25.955 29.0336L25.9566 29.031L30.2924 7.17153C30.228 7.187 30.1629 7.20541 30.1002 7.22536C30.0293 7.24797 29.9706 7.26951 29.9319 7.28455C29.9126 7.29201 29.8988 7.29766 29.8913 7.30078L29.8887 7.30179ZM17.1968 25.8927L15.4395 24.5454L15.0138 27.254L17.1968 25.8927ZM13.8276 21.8721L15.575 20.1851C16.6371 19.1598 18.0582 17.7882 19.494 16.4028L20.9528 14.9955L11.1727 20.7207L11.2251 20.8444C11.4917 21.4731 11.8512 22.324 12.2226 23.2127C12.5002 23.877 12.7906 24.5766 13.0551 25.2243L13.4797 22.5237C13.5206 22.2633 13.6478 22.038 13.8276 21.8721Z" fill="white"/>
</svg>
