<svg width="13" height="14" viewBox="0 0 13 14" fill="none" xmlns="http://www.w3.org/2000/svg">
<path d="M6.67051 7.0214C5.80296 7.0214 5.09315 6.72833 4.54108 6.14218C3.989 5.55603 3.71297 4.8024 3.71297 3.88131C3.71297 2.96021 3.989 2.20659 4.54108 1.62044C5.09315 1.03429 5.80296 0.741211 6.67051 0.741211C7.53805 0.741211 8.24786 1.03429 8.79994 1.62044C9.35201 2.20659 9.62805 2.96021 9.62805 3.88131C9.62805 4.8024 9.35201 5.55603 8.79994 6.14218C8.24786 6.72833 7.53805 7.0214 6.67051 7.0214ZM0.361084 13.7412V11.7734C0.361084 11.2431 0.485958 10.7895 0.735706 10.4127C0.985454 10.0359 1.3075 9.7498 1.70184 9.55442C2.58253 9.13574 3.42707 8.82173 4.23547 8.61239C5.04386 8.40305 5.85554 8.29838 6.67051 8.29838C7.48548 8.29838 8.29387 8.40654 9.09569 8.62285C9.89752 8.83917 10.7383 9.15105 11.6179 9.55848C12.0293 9.75562 12.3592 10.0415 12.6075 10.4161C12.8558 10.7906 12.9799 11.2431 12.9799 11.7734V13.7412H0.361084ZM1.5441 12.4852H11.7969V11.7734C11.7969 11.5501 11.7345 11.3373 11.6096 11.1349C11.4847 10.9326 11.3303 10.7825 11.1463 10.6849C10.305 10.2522 9.53604 9.95565 8.83937 9.79516C8.14271 9.63466 7.41975 9.55442 6.67051 9.55442C5.92126 9.55442 5.19174 9.63466 4.48193 9.79516C3.77212 9.95565 3.00316 10.2522 2.17504 10.6849C1.99102 10.7825 1.83986 10.9326 1.72155 11.1349C1.60325 11.3373 1.5441 11.5501 1.5441 11.7734V12.4852ZM6.67051 5.76537C7.18315 5.76537 7.60706 5.58743 7.94225 5.23155C8.27744 4.87567 8.44503 4.42559 8.44503 3.88131C8.44503 3.33702 8.27744 2.88694 7.94225 2.53107C7.60706 2.17519 7.18315 1.99725 6.67051 1.99725C6.15787 1.99725 5.73395 2.17519 5.39877 2.53107C5.06358 2.88694 4.89598 3.33702 4.89598 3.88131C4.89598 4.42559 5.06358 4.87567 5.39877 5.23155C5.73395 5.58743 6.15787 5.76537 6.67051 5.76537Z" fill="#034265"/>
</svg>
