<svg width="38" height="39" viewBox="0 0 38 39" fill="none" xmlns="http://www.w3.org/2000/svg">
<path fill-rule="evenodd" clip-rule="evenodd" d="M11.2172 19.7475H2.97746C2.0636 19.7475 1.3183 19.0022 1.3183 18.0884V3.51597C1.3183 2.60212 2.06368 1.85681 2.97746 1.85681H26.4114C26.8991 1.85681 27.3188 2.04377 27.645 2.4064L30.0639 5.09549L23.236 5.63024C22.4141 5.69459 21.7014 6.08142 21.1996 6.73551L11.2172 19.7475ZM7.19331 6.18265C6.34402 6.18265 5.65564 6.87103 5.65564 7.72031C5.65564 8.5696 6.34402 9.25798 7.19331 9.25798C8.04259 9.25798 8.73097 8.5696 8.73097 7.72031C8.73097 6.87103 8.04259 6.18265 7.19331 6.18265ZM12.5273 5.98233L6.05071 14.9973C5.85989 15.2625 5.92008 15.6321 6.18527 15.823C6.45045 16.0138 6.82006 15.9536 7.01095 15.6885L13.4875 6.67353C13.6783 6.40835 13.6181 6.03867 13.3529 5.84785C13.0878 5.65696 12.7181 5.71715 12.5273 5.98233ZM12.3393 12.3463C11.4901 12.3463 10.8017 13.0347 10.8017 13.884C10.8017 14.7332 11.4901 15.4216 12.3393 15.4216C13.1886 15.4216 13.877 14.7332 13.877 13.884C13.8771 13.0347 13.1886 12.3463 12.3393 12.3463ZM36.3366 18.348C36.6334 17.9611 36.7405 17.5141 36.6513 17.0348L35.211 9.28848C35.026 8.2944 34.7124 7.43012 33.9101 6.81462C33.1077 6.19913 32.1918 6.11986 31.1836 6.19883L23.3287 6.81403C22.8425 6.8521 22.4387 7.07135 22.1419 7.45825L7.87797 26.0512C7.32178 26.7762 7.45938 27.8212 8.18442 28.3775L19.7464 37.2474C20.4715 37.8036 21.5166 37.6659 22.0728 36.9409L36.3366 18.348ZM29.4424 10.1044C28.9239 10.7803 29.0515 11.7485 29.7273 12.267C30.4031 12.7854 31.3713 12.6579 31.8898 11.982C32.4083 11.3062 32.2807 10.338 31.6049 9.81952C30.929 9.30103 29.9608 9.42861 29.4424 10.1044ZM30.089 16.0837L28.5201 18.1293L23.8629 14.5576C23.6029 14.3591 23.2312 14.4089 23.0326 14.669C22.834 14.929 22.8839 15.3007 23.1439 15.4993L28.2701 19.4308C28.5301 19.6293 28.9018 19.5794 29.1005 19.3194L31.0307 16.8027C31.2292 16.5427 31.1794 16.1709 30.9193 15.9723C30.6593 15.7738 30.2876 15.8237 30.089 16.0837ZM25.4572 23.4963L24.5321 22.1616L25.7641 20.5552L27.2929 21.1026C27.6016 21.2128 27.9412 21.0519 28.0514 20.7431C28.1616 20.4344 28.0006 20.0949 27.6919 19.9847L21.3044 17.6976L21.3039 17.6991C21.1308 17.6375 20.9315 17.6571 20.7687 17.7695C20.4997 17.9552 20.4322 18.3239 20.6179 18.5928L24.483 24.1687C24.6687 24.4377 25.0374 24.5053 25.3064 24.3195C25.5754 24.1339 25.643 23.7652 25.4572 23.4963ZM22.6442 19.4381L23.8234 21.1391L24.5929 20.1358L22.6442 19.4381ZM23.3577 24.8605C23.5562 24.6006 23.928 24.5507 24.1881 24.7492C24.4481 24.9477 24.4979 25.3195 24.2994 25.5796L22.3692 28.0963C22.1706 28.3563 21.7989 28.4062 21.5388 28.2077L16.4126 24.2762C16.1526 24.0777 16.1027 23.7059 16.3013 23.4459L18.2315 20.9291C18.43 20.6691 18.8018 20.6192 19.0618 20.8178C19.3218 21.0163 19.3717 21.3881 19.1732 21.6481L17.6027 23.6958L19.2257 24.9405L20.2315 23.629C20.4301 23.369 20.8018 23.3192 21.0619 23.5177C21.3219 23.7162 21.3718 24.088 21.1732 24.3481L20.1659 25.6616L21.7889 26.9063L23.3577 24.8605ZM13.092 27.6305L14.0571 26.3721C14.4222 25.896 14.9486 25.6126 15.5027 25.5396C16.0556 25.4666 16.6362 25.6034 17.1109 25.9674L19.7204 27.9687C20.1964 28.3338 20.4799 28.8603 20.5529 29.4143C20.6259 29.9672 20.4891 30.5478 20.125 31.0225L19.1599 32.2809C18.9614 32.5409 18.5896 32.5908 18.3295 32.3923L13.2033 28.4608C12.9433 28.2623 12.8935 27.8905 13.092 27.6305ZM14.9987 27.0911C15.1644 26.8751 15.4037 26.7464 15.6557 26.7132C15.9087 26.6798 16.1746 26.7424 16.3919 26.9091L19.0014 28.9104C19.2174 29.0761 19.3461 29.3154 19.3793 29.5674C19.4127 29.8204 19.35 30.0863 19.1833 30.3036L18.5795 31.0909L14.3934 27.8804L14.9987 27.0911Z" fill="#034265"/>
</svg>
