<svg width="15" height="14" viewBox="0 0 15 14" fill="none" xmlns="http://www.w3.org/2000/svg">
<path d="M10.5871 9.21579L13.3769 6.70731L14.7555 6.82596L11.69 9.57172L12.6145 13.7412L11.4143 12.9785L10.5871 9.21579ZM9.07863 4.31748L8.1541 2.0463L8.67313 0.741211L10.1654 4.41918L9.07863 4.31748ZM4.01806 11.5039L6.56456 9.9107L9.11107 11.5209L8.42984 8.50392L10.6682 6.47002L7.71617 6.19884L6.56456 3.35138L5.41296 6.18189L2.46096 6.45308L4.69929 8.48697L4.01806 11.5039ZM2.55828 13.6226L3.61257 8.85986L0.0766602 5.65647L4.74795 5.23274L6.56456 0.741211L8.38118 5.23274L13.0525 5.65647L9.51656 8.85986L10.5708 13.6226L6.56456 11.0971L2.55828 13.6226Z" fill="#034265"/>
</svg>
