<svg width="148" height="98" viewBox="0 0 148 98" fill="none" xmlns="http://www.w3.org/2000/svg">
<path d="M140 -6.10352e-05H8.07726C3.93083 -6.10352e-05 0.538631 3.39214 0.538631 7.53828V90.4615C0.538631 94.6074 3.93083 98.0001 8.07726 98.0001H140C144.146 98.0001 147.539 94.6079 147.539 90.4615V7.53828C147.539 3.39214 144.146 -6.10352e-05 140 -6.10352e-05ZM137.171 5.65341L78.3751 49.754C77.318 50.5585 75.6952 51.0618 74.0383 51.0543C72.3817 51.0618 70.7593 50.5585 69.7018 49.754L10.9059 5.65341H137.171ZM105.764 52.6638L137.803 92.241C137.835 92.2806 137.874 92.3108 137.908 92.3467H10.1689C10.2027 92.3091 10.2424 92.2806 10.2745 92.241L42.313 52.6638C43.2947 51.4502 43.1086 49.671 41.8927 48.6871C40.6791 47.7055 38.8999 47.8915 37.918 49.1054L6.19239 88.2961V9.18715L66.3114 54.2765C68.5712 55.9596 71.3206 56.7003 74.0381 56.7078C76.7518 56.702 79.5035 55.9613 81.7647 54.2765L141.884 9.18715V88.2955L110.159 49.1054C109.177 47.8918 107.396 47.7052 106.184 48.6871C104.969 49.6687 104.782 51.4502 105.764 52.6638Z" fill="#034265" fill-opacity="0.69"/>
</svg>
