<svg width="28" height="29" viewBox="0 0 28 29" fill="none" xmlns="http://www.w3.org/2000/svg">
<path d="M4.79842 21.9993C6.21767 20.9726 7.62565 20.1851 9.02238 19.6368C10.4191 19.0884 11.9172 18.8143 13.5167 18.8143C15.1161 18.8143 16.6199 19.0884 18.0279 19.6368C19.4358 20.1851 20.8495 20.9726 22.2687 21.9993C23.2599 20.7393 23.9639 19.4676 24.3807 18.1843C24.7975 16.9009 25.0058 15.5476 25.0058 14.1243C25.0058 10.7409 23.9076 7.91177 21.7111 5.63677C19.5147 3.36177 16.7832 2.22427 13.5167 2.22427C10.2501 2.22427 7.51865 3.36177 5.32219 5.63677C3.12573 7.91177 2.0275 10.7409 2.0275 14.1243C2.0275 15.5476 2.24151 16.9009 2.66954 18.1843C3.09757 19.4676 3.8072 20.7393 4.79842 21.9993ZM13.5104 15.1743C12.208 15.1743 11.1118 14.7113 10.222 13.7853C9.33213 12.8593 8.88721 11.7218 8.88721 10.3728C8.88721 9.02376 9.33423 7.88843 10.2283 6.96677C11.1223 6.0451 12.2205 5.58427 13.523 5.58427C14.8254 5.58427 15.9215 6.04727 16.8114 6.97328C17.7012 7.89928 18.1461 9.03678 18.1461 10.3858C18.1461 11.7348 17.6991 12.8701 16.8051 13.7918C15.911 14.7134 14.8128 15.1743 13.5104 15.1743ZM13.5325 28.1243C11.6747 28.1243 9.92349 27.7568 8.27896 27.0218C6.63443 26.2868 5.19829 25.2834 3.97052 24.0118C2.74276 22.7401 1.77406 21.2553 1.06444 19.5575C0.354813 17.8596 0 16.0454 0 14.115C0 12.1845 0.354813 10.3734 1.06444 8.68177C1.77406 6.9901 2.74276 5.50843 3.97052 4.23677C5.19829 2.9651 6.6318 1.96177 8.27105 1.22677C9.91031 0.491768 11.6618 0.124268 13.5257 0.124268C15.3895 0.124268 17.138 0.491768 18.7713 1.22677C20.4045 1.96177 21.8351 2.9651 23.0628 4.23677C24.2906 5.50843 25.2593 6.99047 25.9689 8.68289C26.6785 10.3753 27.0333 12.1836 27.0333 14.1079C27.0333 16.0321 26.6785 17.8459 25.9689 19.5493C25.2593 21.2526 24.2906 22.7401 23.0628 24.0118C21.8351 25.2834 20.4042 26.2868 18.7702 27.0218C17.1362 27.7568 15.3903 28.1243 13.5325 28.1243ZM13.5167 26.0243C14.7557 26.0243 15.9666 25.8376 17.1493 25.4643C18.332 25.0909 19.4978 24.4376 20.6467 23.5043C19.4978 22.6643 18.3264 22.0226 17.1324 21.5793C15.9384 21.1359 14.7332 20.9143 13.5167 20.9143C12.3002 20.9143 11.0949 21.1359 9.90096 21.5793C8.70699 22.0226 7.53554 22.6643 6.38663 23.5043C7.53554 24.4376 8.70136 25.0909 9.88406 25.4643C11.0668 25.8376 12.2776 26.0243 13.5167 26.0243ZM13.5167 13.0743C14.2826 13.0743 14.9078 12.8234 15.3921 12.3218C15.8765 11.8201 16.1186 11.1726 16.1186 10.3793C16.1186 9.58593 15.8765 8.93843 15.3921 8.43677C14.9078 7.9351 14.2826 7.68427 13.5167 7.68427C12.7507 7.68427 12.1256 7.9351 11.6412 8.43677C11.1569 8.93843 10.9147 9.58593 10.9147 10.3793C10.9147 11.1726 11.1569 11.8201 11.6412 12.3218C12.1256 12.8234 12.7507 13.0743 13.5167 13.0743Z" fill="#E63E24"/>
</svg>
