<svg width="11" height="14" viewBox="0 0 11 14" fill="none" xmlns="http://www.w3.org/2000/svg">
<path d="M5.80475 7.13792C6.10448 7.13792 6.3606 7.02639 6.57313 6.80334C6.78566 6.58031 6.89192 6.31218 6.89192 5.99897C6.89192 5.68577 6.7852 5.41812 6.57175 5.19604C6.35831 4.97396 6.10172 4.86291 5.80199 4.86291C5.50226 4.86291 5.24614 4.97444 5.03361 5.19749C4.82108 5.42052 4.71482 5.68865 4.71482 6.00186C4.71482 6.31506 4.82155 6.58271 5.03499 6.80479C5.24843 7.02687 5.50502 7.13792 5.80475 7.13792ZM5.80337 12.5167C7.1822 11.2058 8.20077 10.0169 8.85908 8.94979C9.51739 7.88271 9.84655 6.94291 9.84655 6.13041C9.84655 4.85436 9.45627 3.80951 8.67571 2.99587C7.89516 2.18223 6.93771 1.77541 5.80337 1.77541C4.66903 1.77541 3.71158 2.18223 2.93103 2.99587C2.15047 3.80951 1.76019 4.85436 1.76019 6.13041C1.76019 6.94291 2.09712 7.88271 2.77099 8.94979C3.44485 10.0169 4.45564 11.2058 5.80337 12.5167ZM5.80337 13.8004C4.13426 12.3162 2.88762 10.9377 2.06343 9.66479C1.23924 8.39187 0.827148 7.21375 0.827148 6.13041C0.827148 4.50541 1.32736 3.21083 2.32779 2.24666C3.32822 1.2825 4.48674 0.800415 5.80337 0.800415C7.12 0.800415 8.27852 1.2825 9.27895 2.24666C10.2794 3.21083 10.7796 4.50541 10.7796 6.13041C10.7796 7.21375 10.3675 8.39187 9.54331 9.66479C8.71913 10.9377 7.47248 12.3162 5.80337 13.8004Z" fill="#32D5F9"/>
</svg>
