<svg width="19" height="19" viewBox="0 0 19 19" fill="none" xmlns="http://www.w3.org/2000/svg">
<path d="M17.2491 18.7281L10.6741 12.1531C10.1741 12.5865 9.59113 12.924 8.92515 13.1656C8.25916 13.4073 7.55049 13.5281 6.79912 13.5281C4.99642 13.5281 3.47075 12.9031 2.2221 11.6531C0.973446 10.4031 0.349121 8.89482 0.349121 7.12815C0.349121 5.36148 0.974121 3.85315 2.22412 2.60315C3.47412 1.35315 4.98662 0.728149 6.76162 0.728149C8.53662 0.728149 10.045 1.35315 11.2866 2.60315C12.5283 3.85315 13.1491 5.36273 13.1491 7.1319C13.1491 7.84607 13.0325 8.53648 12.7991 9.20315C12.5658 9.86982 12.2158 10.4948 11.7491 11.0781L18.3491 17.6281L17.2491 18.7281ZM6.77412 12.0281C8.12829 12.0281 9.27933 11.549 10.2272 10.5906C11.1752 9.63232 11.6491 8.47815 11.6491 7.12815C11.6491 5.77815 11.1752 4.62398 10.2272 3.66565C9.27933 2.70732 8.12829 2.22815 6.77412 2.22815C5.40607 2.22815 4.24322 2.70732 3.28557 3.66565C2.32794 4.62398 1.84912 5.77815 1.84912 7.12815C1.84912 8.47815 2.32794 9.63232 3.28557 10.5906C4.24322 11.549 5.40607 12.0281 6.77412 12.0281Z" fill="#034265"/>
</svg>
