<svg width="28" height="29" viewBox="0 0 28 29" fill="none" xmlns="http://www.w3.org/2000/svg">
<g clip-path="url(#clip0_1_829)">
<mask id="mask0_1_829" style="mask-type:luminance" maskUnits="userSpaceOnUse" x="0" y="0" width="28" height="29">
<path d="M0 0.124212H27.9988V28.1647H0V0.124212Z" fill="white"/>
</mask>
<g mask="url(#mask0_1_829)">
<path d="M13.9996 9.83612C11.6237 9.83612 9.69767 11.765 9.69767 14.1444C9.69767 16.5238 11.6237 18.4527 13.9996 18.4527C16.3754 18.4527 18.3015 16.5238 18.3015 14.1444C18.3015 11.765 16.3754 9.83612 13.9996 9.83612ZM26.0742 11.07L24.9094 12.0303C23.5808 13.1257 23.5808 15.1631 24.9094 16.2585L26.0742 17.2188C26.4869 17.5591 26.5935 18.1484 26.3262 18.6121L24.0263 22.6016C23.759 23.0653 23.1961 23.2675 22.6955 23.0796L21.2827 22.5496C19.6712 21.945 17.9092 22.9637 17.6263 24.6637L17.3783 26.1541C17.2904 26.6822 16.8341 27.0693 16.2995 27.0693H11.6996C11.165 27.0693 10.7087 26.6822 10.6209 26.1541L10.3728 24.6637C10.0899 22.9637 8.32802 21.945 6.71651 22.5496L5.30377 23.0796C4.80307 23.2675 4.2402 23.0653 3.97284 22.6016L1.67295 18.6121C1.40565 18.1484 1.51223 17.5591 1.92499 17.2188L3.08979 16.2585C4.41836 15.1631 4.41836 13.1257 3.08979 12.0303L1.92499 11.07C1.51223 10.7297 1.40565 10.1404 1.67295 9.67669L3.97284 5.68723C4.2402 5.22352 4.80307 5.02132 5.30377 5.20917L6.71651 5.7392C8.32802 6.34382 10.0899 5.32511 10.3728 3.6251L10.6209 2.13474C10.7087 1.60663 11.165 1.21954 11.6996 1.21954H16.2995C16.8341 1.21954 17.2904 1.60663 17.3783 2.13474L17.6263 3.6251C17.9092 5.32511 19.6712 6.34382 21.2827 5.7392L22.6955 5.20917C23.1961 5.02132 23.759 5.22352 24.0263 5.68723L26.3262 9.67669C26.5935 10.1404 26.4869 10.7297 26.0742 11.07Z" stroke="#E63E24" stroke-width="2" stroke-miterlimit="10" stroke-linecap="round" stroke-linejoin="round"/>
</g>
</g>
<defs>
<clipPath id="clip0_1_829">
<rect width="27.9988" height="28.0405" fill="white" transform="translate(0 0.124268)"/>
</clipPath>
</defs>
</svg>
