<svg width="32" height="43" viewBox="0 0 32 43" fill="none" xmlns="http://www.w3.org/2000/svg">
<path d="M11.25 24.1229L13.05 18.3729L8.3 14.6729H14.1L16 8.72293L17.85 14.6729H23.7L18.95 18.3729L20.7 24.1229L16 20.5729L11.25 24.1229ZM4.2 42.7229V27.5229C2.7 25.9563 1.625 24.2396 0.975 22.3729C0.325 20.5063 0 18.6229 0 16.7229C0 12.1896 1.53333 8.3896 4.6 5.32293C7.66667 2.25626 11.4667 0.722931 16 0.722931C20.5333 0.722931 24.3333 2.25626 27.4 5.32293C30.4667 8.3896 32 12.1896 32 16.7229C32 18.6229 31.675 20.5063 31.025 22.3729C30.375 24.2396 29.3 25.9563 27.8 27.5229V42.7229L16 38.7729L4.2 42.7229ZM16 29.7229C19.6333 29.7229 22.7083 28.4646 25.225 25.9479C27.7417 23.4313 29 20.3563 29 16.7229C29 13.0896 27.7417 10.0146 25.225 7.49793C22.7083 4.98126 19.6333 3.72293 16 3.72293C12.3667 3.72293 9.29167 4.98126 6.775 7.49793C4.25833 10.0146 3 13.0896 3 16.7229C3 20.3563 4.25833 23.4313 6.775 25.9479C9.29167 28.4646 12.3667 29.7229 16 29.7229ZM7.2 38.5229L16 35.7729L24.8 38.5229V29.9729C23.4667 30.9396 22.0333 31.6396 20.5 32.0729C18.9667 32.5063 17.4667 32.7229 16 32.7229C14.5333 32.7229 13.0333 32.5063 11.5 32.0729C9.96667 31.6396 8.53333 30.9396 7.2 29.9729V38.5229Z" fill="#034265"/>
</svg>
