<svg width="15" height="12" viewBox="0 0 15 12" fill="none" xmlns="http://www.w3.org/2000/svg">
<path d="M15 1.42145C14.4357 1.66401 13.8388 1.82516 13.2277 1.8999C13.8719 1.52394 14.3534 0.92832 14.5809 0.226065C13.978 0.578285 13.3183 0.826342 12.6303 0.959494C12.2087 0.515762 11.6612 0.207154 11.059 0.0738116C10.4568 -0.0595312 9.82782 -0.0114379 9.25377 0.211836C8.67972 0.435109 8.18722 0.82323 7.84034 1.32572C7.49345 1.8282 7.30822 2.4218 7.30875 3.02929C7.30658 3.26117 7.33061 3.49257 7.38037 3.71923C6.15662 3.66007 4.95931 3.34749 3.86665 2.80191C2.774 2.25633 1.81058 1.49002 1.03932 0.553033C0.642883 1.21958 0.520063 2.00998 0.695962 2.76267C0.87186 3.51537 1.3332 4.17353 1.98568 4.60264C1.49866 4.58972 1.02197 4.46163 0.595855 4.22918V4.26218C0.597226 4.96085 0.84294 5.63776 1.2917 6.17912C1.74045 6.72048 2.36489 7.0933 3.06004 7.23489C2.79697 7.30292 2.52588 7.3362 2.25389 7.33388C2.05804 7.33744 1.86237 7.32035 1.67022 7.28289C1.86938 7.88376 2.2528 8.40914 2.76776 8.78677C3.28271 9.1644 3.90389 9.37573 4.54587 9.39168C3.45798 10.2286 2.11685 10.6832 0.736056 10.6831C0.49003 10.6851 0.244136 10.6711 0 10.6411C1.40791 11.5345 3.04901 12.0065 4.72417 11.9999C10.3856 11.9999 13.4806 7.38488 13.4806 3.38476C13.4806 3.25127 13.4806 3.12229 13.47 2.9933C14.0727 2.56515 14.5912 2.0325 15 1.42145Z" fill="white"/>
</svg>
