<svg width="32" height="41" viewBox="0 0 32 41" fill="none" xmlns="http://www.w3.org/2000/svg">
<path d="M16.0102 25.0229C17.2367 25.0229 18.2833 24.5979 19.15 23.7479C20.0167 22.8979 20.45 21.8479 20.45 20.5979C20.45 19.3479 20.0133 18.2896 19.1398 17.4229C18.2664 16.5563 17.2164 16.1229 15.9898 16.1229C14.7633 16.1229 13.7167 16.5563 12.85 17.4229C11.9833 18.2896 11.55 19.3479 11.55 20.5979C11.55 21.8479 11.9867 22.8979 12.8602 23.7479C13.7336 24.5979 14.7836 25.0229 16.0102 25.0229ZM16 37.6229C17.5667 37.0896 19.1667 36.2479 20.8 35.0979C22.4333 33.9479 23.75 32.6396 24.75 31.1729L20.15 26.7729C19.5167 27.1396 18.8473 27.4396 18.142 27.6729C17.4366 27.9063 16.7226 28.0229 16 28.0229C13.9333 28.0229 12.175 27.3063 10.725 25.8729C9.275 24.4396 8.55 22.6813 8.55 20.5979C8.55 18.5146 9.275 16.7479 10.725 15.2979C12.175 13.8479 13.9333 13.1229 16 13.1229C18.0667 13.1229 19.825 13.8479 21.275 15.2979C22.725 16.7479 23.45 18.5229 23.45 20.6229C23.45 21.3229 23.35 22.0229 23.15 22.7229C22.95 23.4229 22.6333 24.0563 22.2 24.6229L26.4 28.6229C27.2 27.1896 27.8333 25.6134 28.3 23.8945C28.7667 22.1755 29 20.4183 29 18.6229V8.69873L16 3.97293L3 8.69873V18.6229C3 22.9896 4.20833 26.9313 6.625 30.4479C9.04167 33.9646 12.1667 36.3563 16 37.6229ZM16 40.7229C11.3333 39.5563 7.5 36.8479 4.5 32.5979C1.5 28.3479 0 23.6896 0 18.6229V6.72293L16 0.722931L32 6.72293V18.6229C32 23.6896 30.5 28.3479 27.5 32.5979C24.5 36.8479 20.6667 39.5563 16 40.7229Z" fill="#034265"/>
</svg>
