<svg width="48" height="48" viewBox="0 0 48 48" fill="none" xmlns="http://www.w3.org/2000/svg">
<path d="M35.6742 5.58398H13.3112C11.2527 5.58398 9.58398 7.2527 9.58398 9.31116V37.5848C9.58398 38.5732 9.97666 39.5214 10.6757 40.2202L11.1452 40.6898C12.3414 41.886 14.2809 41.886 15.4772 40.6898C16.4095 39.7574 17.8338 39.5264 19.0131 40.116L22.8258 42.0224C23.8752 42.547 25.1102 42.547 26.1596 42.0224L30.2802 39.962C31.3296 39.4374 32.5646 39.4374 33.614 39.962L34.0074 40.1588C36.4856 41.398 39.4014 39.5958 39.4014 36.8252V9.31116C39.4014 7.2527 37.7328 5.58398 35.6742 5.58398Z" stroke="white" stroke-width="3" stroke-linecap="round"/>
<path d="M20.3662 22.0898L21.3886 23.1122C21.9532 23.6768 22.8688 23.6768 23.4334 23.1122L28.5456 18" stroke="white" stroke-width="3" stroke-linecap="round"/>
<path d="M17.0386 31.6742H31.9472" stroke="white" stroke-width="3" stroke-linecap="round"/>
</svg>
