<svg width="32" height="32" viewBox="0 0 32 32" fill="none" xmlns="http://www.w3.org/2000/svg">
<g clip-path="url(#clip0_172_1040)">
<path fill-rule="evenodd" clip-rule="evenodd" d="M5.3627 23.7595L3.60449 30.0159L7.03185 28.8844L9.25737 31.813L11.1491 25.2238L5.3627 23.7595Z" fill="#2A2941"/>
<path fill-rule="evenodd" clip-rule="evenodd" d="M20.8048 17.5254L26.4576 20.5205L23.2529 22.2732L23.7647 25.9782L17.8447 22.8056L20.7825 17.5254H20.8048Z" fill="#2A2941"/>
<path fill-rule="evenodd" clip-rule="evenodd" d="M0.353071 19.4338C-0.314552 17.9695 0.664705 16.3056 0.620174 14.8414C0.575642 13.3771 -0.359083 11.8019 0.152767 10.6483C0.753681 9.27275 2.42283 8.91783 3.42435 7.89723C4.42587 6.87673 4.93772 4.92433 6.07275 4.45844C7.49706 3.88165 9.01044 4.8578 10.4571 4.8578C11.9037 4.8578 13.5283 3.92601 14.7747 4.4807C16.0209 5.01313 16.555 6.83237 17.5788 7.87506C18.6025 8.89556 20.3162 9.18404 20.9394 10.6483C21.5626 12.0903 20.5388 13.5324 20.561 14.9745C20.5833 16.4166 21.5848 18.1692 21.0952 19.3228C20.5833 20.4765 18.9809 21.0534 17.8904 22.0295C16.7999 23.0057 16.4438 24.8914 15.0639 25.5127C13.6842 26.1338 12.0817 25.1133 10.6129 25.1133C9.16621 25.1133 7.69737 26.0451 6.33977 25.5127C4.98226 24.9802 4.60391 23.161 3.58012 22.1404C2.5786 21.1199 0.93172 20.8315 0.264096 19.5003L0.353071 19.4338Z" fill="#2A2941"/>
<path d="M10.6121 22.3399C14.618 22.3399 17.8896 19.0565 17.8896 15.0187C17.8896 10.9809 14.6402 7.69739 10.6121 7.69739C6.58379 7.69739 3.33447 10.9809 3.33447 15.0187C3.33447 19.0565 6.58379 22.3399 10.6121 22.3399Z" fill="#2A2941"/>
<path fill-rule="evenodd" clip-rule="evenodd" d="M9.10192 11.1136L11.4165 12.7553L14.2207 12.245L13.3527 14.8851L14.6657 17.3699H11.8171L9.83634 19.4332L8.94615 16.7931L6.38672 15.5729L8.67904 13.8868L9.07965 11.0692L9.10192 11.1136Z" fill="#2A2941"/>
<path fill-rule="evenodd" clip-rule="evenodd" d="M8.80978 20.5872L7.09619 26.555L10.3454 25.4902L12.482 28.2856L14.2846 22.007L8.80978 20.5872Z" fill="#32EDBB"/>
<path fill-rule="evenodd" clip-rule="evenodd" d="M16.1325 20.9421L7.80896 18.7902L4.93799 28.8402L9.87872 27.2207L13.1502 31.5247L16.1325 20.9421ZM8.81039 20.5871L7.09672 26.5551L10.346 25.4902L12.4826 28.2856L14.2852 22.0071L8.81039 20.5871Z" fill="#2A2941"/>
<path fill-rule="evenodd" clip-rule="evenodd" d="M23.5232 14.6194L28.9091 17.5035L25.8601 19.1674L26.3497 22.6949L20.6968 19.6776L23.5232 14.6194Z" fill="#32EDBB"/>
<path fill-rule="evenodd" clip-rule="evenodd" d="M31.9999 17.4808L22.9197 12.6443L18.6689 20.254L28.2165 25.3345L27.4154 19.9656L31.9999 17.4808ZM23.4983 14.6189L28.8842 17.503L25.8352 19.1669L26.3248 22.6944L20.6942 19.6772L23.4983 14.6189Z" fill="#2A2941"/>
<path fill-rule="evenodd" clip-rule="evenodd" d="M4.02281 16.4604C3.37737 15.0627 4.31209 13.4653 4.28982 12.0676C4.26756 10.6699 3.3551 9.16135 3.82251 8.11858C4.40115 6.80968 6.0035 6.47684 6.96049 5.47851C7.91748 4.48019 8.40707 2.66095 9.6089 2.19505C10.7885 1.72915 12.4131 2.57224 13.7929 2.57224C15.1728 2.57224 16.7306 1.6848 17.9102 2.19505C19.0897 2.7053 19.6016 4.45801 20.5586 5.43416C21.5156 6.41031 23.207 6.74315 23.7634 8.07422C24.342 9.38321 23.385 10.8253 23.4073 12.1786C23.4296 13.5541 24.4088 15.2402 23.9191 16.3495C23.4518 17.4587 21.8939 17.9912 20.8701 18.9896C19.8464 19.9879 19.4681 21.7406 18.2217 22.3396C16.9755 22.9386 15.373 21.9403 13.971 21.9403C12.5911 21.9403 11.1891 22.8276 9.876 22.3396C8.56293 21.8293 8.20676 20.0989 7.2276 19.1227C6.24834 18.1465 4.62364 17.7472 4.02281 16.4604Z" fill="#FEC34E"/>
<path fill-rule="evenodd" clip-rule="evenodd" d="M2.69195 17.0818C3.04803 17.8362 3.62668 18.4795 4.33883 18.9454C4.96201 19.2782 5.5851 19.6775 6.14148 20.099C6.63116 20.7425 7.0763 21.408 7.45464 22.0958C7.89969 22.7836 8.52287 23.3382 9.27956 23.671C10.0585 23.9372 10.8819 24.0037 11.6831 23.8262C12.3953 23.6044 13.152 23.4713 13.8864 23.3825C14.6876 23.4713 15.4666 23.6488 16.2232 23.8706C17.069 24.0703 17.9592 23.9816 18.7381 23.6265C19.4948 23.2494 20.1402 22.6504 20.5853 21.9183C20.9191 21.2527 21.3197 20.6093 21.8093 20.0547C22.4102 19.5666 23.0557 19.1451 23.7233 18.7458C24.3688 18.3021 24.8806 17.6808 25.2144 16.9487C25.5038 16.1722 25.5483 15.307 25.348 14.5083C25.1032 13.7318 24.9251 12.9553 24.8361 12.1566C24.9251 11.4023 25.0587 10.648 25.2812 9.93808C25.4593 9.11716 25.3925 8.25199 25.0587 7.47543C24.7026 6.69897 24.1239 6.03338 23.4118 5.58966C22.7441 5.23474 22.0987 4.81319 21.4978 4.34729C21.0082 3.74824 20.5631 3.08266 20.1847 2.41717C19.7396 1.72941 19.0942 1.15254 18.3375 0.81979C17.5586 0.531309 16.7351 0.4426 15.9117 0.620107C15.155 0.81979 14.3983 0.97503 13.6194 1.06383C12.8404 0.97503 12.0837 0.81979 11.3493 0.597929C10.5258 0.420423 9.6579 0.486954 8.85669 0.775346C8.1 1.13036 7.47682 1.70714 7.05403 2.41717C6.67569 3.12711 6.23055 3.7926 5.74096 4.41383C5.16232 4.87972 4.5614 5.30127 3.89369 5.65619C3.2038 6.09991 2.64742 6.74332 2.31361 7.49761C2.04651 8.25199 2.02424 9.07281 2.22455 9.84928C2.44712 10.5815 2.60289 11.3579 2.71422 12.1122C2.62515 12.911 2.49165 13.7318 2.29134 14.5083C2.13557 15.3957 2.22455 16.3053 2.58062 17.1484L2.69195 17.0818ZM4.00502 16.4607C3.35957 15.063 4.2943 13.4656 4.27203 12.0679C4.24986 10.6702 3.33731 9.16152 3.80472 8.11884C4.38336 6.80985 5.98571 6.4771 6.9427 5.47877C7.89969 4.48036 8.38937 2.66121 9.59111 2.19531C10.7707 1.72941 12.3953 2.57241 13.7751 2.57241C15.155 2.57241 16.7128 1.68497 17.8924 2.19531C19.072 2.70556 19.5838 4.45818 20.5408 5.43433C21.4978 6.41057 23.1892 6.74332 23.7456 8.07448C24.3242 9.38338 23.3672 10.8255 23.3895 12.1788C23.4118 13.5543 24.391 15.2405 23.9014 16.3275C23.434 17.4146 21.8761 17.9914 20.8523 18.9676C19.8286 19.9438 19.4503 21.7186 18.204 22.3177C16.9577 22.9166 15.3553 21.9183 13.9532 21.9183C12.5733 21.9183 11.1713 22.8057 9.85821 22.3177C8.54514 21.8074 8.18906 20.0769 7.20981 19.1007C6.23055 18.1246 4.60593 17.7252 4.00502 16.4385V16.4607Z" fill="#2A2941"/>
<path d="M13.8202 19.2332C17.6481 19.2332 20.7638 16.105 20.7638 12.2447C20.7638 8.38445 17.6481 5.25623 13.8202 5.25623C9.99219 5.25623 6.87646 8.38445 6.87646 12.2447C6.87646 16.105 9.99219 19.2332 13.8202 19.2332Z" fill="white"/>
<path fill-rule="evenodd" clip-rule="evenodd" d="M12.3698 8.51855L14.573 10.0716L17.2214 9.5835L16.398 12.2236L17.711 14.5974H14.9959L13.1042 16.572L12.2362 14.0206L9.78809 12.8448L11.9914 11.2474L12.3698 8.51855Z" fill="#A694FE"/>
</g>
<defs>
<clipPath id="clip0_172_1040">
<rect width="32" height="32" fill="white"/>
</clipPath>
</defs>
</svg>
