<svg width="52" height="52" viewBox="0 0 52 52" fill="none" xmlns="http://www.w3.org/2000/svg">
<path d="M3.4126 25.0859L3.46338 26.6602C3.5751 30.098 4.79385 33.4445 6.99775 36.3289C9.11025 39.0965 12.0556 41.3664 15.5239 42.8949C16.2958 43.2352 17.1946 42.8848 17.5298 42.1129C17.87 41.341 17.5196 40.4422 16.7478 40.107C13.7517 38.7867 11.2177 36.8418 9.41494 34.4805C7.94228 32.5508 7.00283 30.3824 6.65244 28.1328H45.3782C45.0228 30.4078 44.0681 32.5965 42.5649 34.5465C40.7317 36.923 38.1571 38.873 35.1103 40.1781C34.3384 40.5082 33.9829 41.407 34.313 42.1789C34.5618 42.7578 35.1204 43.1031 35.7145 43.1031C35.9177 43.1031 36.1208 43.0625 36.3138 42.9813C43.6517 39.8227 48.3489 33.5715 48.5673 26.6602L48.6181 25.0859H3.4126Z" fill="#0A2540"/>
<path d="M30.0573 40.6299H21.9831C20.1956 40.6299 18.728 42.0924 18.728 43.885C18.728 45.6775 20.1905 47.14 21.9831 47.14H30.0573C31.8448 47.14 33.3124 45.6775 33.3124 43.885C33.3124 42.0924 31.8448 40.6299 30.0573 40.6299ZM30.0573 44.0881H21.9831C21.8765 44.0881 21.7749 43.9865 21.7749 43.8799C21.7749 43.7732 21.8765 43.6717 21.9831 43.6717H30.0573C30.164 43.6717 30.2655 43.7732 30.2655 43.8799C30.2655 43.9865 30.164 44.0881 30.0573 44.0881Z" fill="#0A2540"/>
<path d="M25.2943 18.9666C24.8068 18.2811 23.8521 18.1236 23.1666 18.6162C22.4811 19.1037 22.3236 20.0584 22.8162 20.7439C23.3646 21.5107 23.6592 22.4197 23.6592 23.3693C23.6592 24.2123 24.3396 24.8928 25.1826 24.8928C26.0256 24.8928 26.7061 24.2123 26.7061 23.3693C26.7061 21.7748 26.2186 20.2514 25.2943 18.9666ZM21.958 16.3412C21.0592 15.9807 20.1146 15.7979 19.1396 15.7979C14.9654 15.7979 11.5732 19.19 11.5732 23.3643C11.5732 24.2072 12.2537 24.8877 13.0967 24.8877C13.9396 24.8877 14.6201 24.2072 14.6201 23.3643C14.6201 20.8709 16.6463 18.8447 19.1396 18.8447C19.7236 18.8447 20.2873 18.9514 20.8205 19.1697C21.6025 19.4846 22.4861 19.1037 22.801 18.3217C23.1158 17.5396 22.74 16.651 21.958 16.3412Z" fill="#0A2540"/>
<path d="M27.8995 13.9495C25.528 11.6338 22.4303 10.3541 19.1752 10.3541C15.9202 10.3541 12.8225 11.6288 10.451 13.9495C8.11 16.2397 6.69321 19.3323 6.45961 22.6534C6.39867 23.4913 7.03344 24.2225 7.87133 24.2784C8.70922 24.3342 9.44047 23.7045 9.49633 22.8666C9.67407 20.287 10.7709 17.8952 12.5788 16.128C14.3764 14.3709 16.7174 13.401 19.1752 13.401C21.628 13.401 23.9741 14.3709 25.7717 16.128C27.5795 17.8952 28.6713 20.287 28.8541 22.8666C28.91 23.669 29.5803 24.2834 30.3725 24.2834C30.408 24.2834 30.4436 24.2834 30.4791 24.2784C31.317 24.2174 31.9518 23.4913 31.8909 22.6534C31.6573 19.3323 30.2405 16.2397 27.8995 13.9495ZM45.4545 19.5963C44.8705 18.6112 44.0479 17.7377 43.012 16.9963L45.7491 14.0358C46.3178 13.4163 46.2823 12.4514 45.6627 11.8827C45.0432 11.3139 44.0784 11.3495 43.5096 11.969L40.2088 15.544C39.9549 15.4526 39.6959 15.3663 39.4319 15.2901L43.6163 7.20571C44.0022 6.45922 43.7127 5.54008 42.9612 5.15415C42.2147 4.76821 41.2956 5.05766 40.9096 5.80922L36.2784 14.762C35.9991 14.7467 35.7147 14.7366 35.4303 14.7366C34.3182 14.7366 33.2213 14.8584 32.1651 15.1022C31.3475 15.2901 30.8346 16.1077 31.0225 16.9303C31.2104 17.7479 32.028 18.2608 32.8506 18.0729C33.6784 17.8799 34.5467 17.7834 35.4252 17.7834C37.6393 17.7834 39.701 18.3827 41.2295 19.4745C42.6057 20.4545 43.3624 21.7088 43.3624 23.0038C43.3624 23.8467 44.0428 24.5272 44.8858 24.5272C45.7288 24.5272 46.4092 23.8467 46.4092 23.0038C46.4092 21.8104 46.0893 20.6627 45.4545 19.5963Z" fill="#0A2540"/>
</svg>
