<svg width="52" height="52" viewBox="0 0 52 52" fill="none" xmlns="http://www.w3.org/2000/svg">
<g clip-path="url(#clip0_176_757)">
<path fill-rule="evenodd" clip-rule="evenodd" d="M14.9974 21.0998C18.6452 21.0998 21.6032 24.0578 21.6032 27.7056C21.6032 31.3534 18.6452 34.3114 14.9974 34.3114C11.3496 34.3114 8.3916 31.3534 8.3916 27.7056C8.3916 24.0578 11.3496 21.0998 14.9974 21.0998ZM24.7516 10.4061L28.9538 5.37451H26.1862C25.9492 5.37451 25.7207 5.34489 25.5133 5.28564C25.3864 5.24756 25.2721 5.20524 25.1748 5.146C25.069 5.09098 24.9717 5.02327 24.8786 4.94287L24.8743 4.93864C24.7812 4.85824 24.7051 4.7736 24.6331 4.6805C24.5654 4.5874 24.5062 4.48584 24.4596 4.37581C24.4173 4.27002 24.3792 4.16423 24.3538 4.0542C24.3285 3.93571 24.32 3.82145 24.32 3.70719C24.32 3.59294 24.3285 3.47868 24.3496 3.36865C24.3708 3.25439 24.4046 3.14437 24.4469 3.04281C24.4977 2.93278 24.5527 2.83122 24.6204 2.73389C24.6839 2.64079 24.7643 2.54769 24.8532 2.46729L24.8574 2.46305C24.9421 2.38265 25.0436 2.31071 25.1494 2.25146C25.2552 2.19222 25.3695 2.14144 25.4964 2.10335C25.6022 2.07373 25.7165 2.04411 25.8265 2.03141C25.9535 2.01872 26.0719 2.01025 26.1904 2.01025H32.1868C32.4915 2.01025 32.7666 2.05257 33.0078 2.13298C33.2575 2.21761 33.4733 2.3488 33.6553 2.51807C33.8499 2.6958 33.9938 2.90739 34.0911 3.15706C34.1842 3.40251 34.2308 3.67757 34.2308 3.97803C34.2308 4.21501 34.2054 4.43506 34.1589 4.64242C34.1335 4.75667 34.0954 4.8667 34.0531 4.97249C34.0107 5.07829 33.96 5.17985 33.9007 5.27295C33.8584 5.33643 33.8119 5.4126 33.7526 5.493C33.7018 5.56071 33.6383 5.64958 33.5537 5.75114L33.3167 6.05583L29.2077 10.9435H32.8936C33.0078 10.9435 33.1221 10.9478 33.2363 10.9647C33.3464 10.9774 33.4564 11.0028 33.5579 11.0324C33.6807 11.062 33.7949 11.1086 33.9007 11.1636C34.0023 11.2144 34.0954 11.2778 34.1885 11.3498L34.1927 11.354C34.2858 11.4302 34.3704 11.5233 34.4466 11.6164C34.5186 11.7095 34.5778 11.8153 34.6244 11.9295L34.6455 11.9845C34.6836 12.0776 34.7132 12.1792 34.7301 12.285C34.7471 12.3908 34.7598 12.4966 34.7598 12.6024C34.7598 12.7166 34.7471 12.8351 34.7259 12.9494C34.7048 13.0636 34.6751 13.1694 34.6328 13.2752C34.5905 13.3895 34.5312 13.491 34.4635 13.5926C34.3958 13.6899 34.3154 13.7788 34.2223 13.8592L34.2139 13.8719C34.125 13.9523 34.0277 14.02 33.9176 14.0793C33.8161 14.1385 33.6976 14.1851 33.5791 14.2189L33.5326 14.2316C33.4352 14.257 33.3337 14.2824 33.2279 14.2951C33.1136 14.3078 33.0036 14.3162 32.8936 14.3162H26.0465C25.7334 14.3162 25.4456 14.2739 25.1833 14.202H25.179C25.0309 14.1597 24.8955 14.0962 24.7686 14.0285C24.6374 13.9565 24.5189 13.8761 24.4131 13.7788C24.3073 13.6815 24.21 13.5757 24.1296 13.4614C24.0449 13.3472 23.9772 13.2244 23.9222 13.0933C23.8672 12.9621 23.8291 12.8351 23.7995 12.6997C23.7741 12.5601 23.7572 12.4246 23.7572 12.2808C23.7572 12.1665 23.7699 12.0607 23.7868 11.9422C23.8079 11.8322 23.8376 11.7306 23.8757 11.6248L23.8799 11.6121C23.8926 11.5698 23.9137 11.536 23.9307 11.4894L23.9899 11.3752L24.0576 11.2609C24.083 11.2186 24.1126 11.1763 24.1423 11.1382L24.7516 10.4061ZM1.42188 16.7114H4.51107C5.29395 16.7114 5.93717 17.3716 5.93717 18.1333V36.6558H21.7344L26.237 20.812H43.9469C48.3776 20.812 52.0042 24.4429 52.0042 28.8693V36.9308H51.9958L52.0042 37.0874V49.9901H46.0713V43.9344H5.93294V49.715H0V18.1333C0 17.3504 0.638997 16.7114 1.42188 16.7114ZM15.1667 15.1626L18.0358 11.7306H16.1611C16.0807 11.7306 16.0003 11.7264 15.9199 11.7179C15.8438 11.7052 15.7676 11.6925 15.6956 11.6714C15.611 11.646 15.5306 11.6121 15.4629 11.5783C15.3867 11.5402 15.319 11.4937 15.2555 11.4386L15.2513 11.4302C15.1921 11.3794 15.137 11.3202 15.0947 11.2567C15.0482 11.1932 15.0059 11.1255 14.972 11.0493C14.9424 10.9774 14.917 10.9012 14.9001 10.825C14.8874 10.7446 14.8789 10.6685 14.8789 10.5838C14.8789 10.5034 14.8874 10.4272 14.9001 10.3468C14.9128 10.2707 14.9382 10.1945 14.9678 10.1268C14.9974 10.0506 15.0355 9.98291 15.082 9.9152C15.1243 9.85596 15.1794 9.79248 15.2386 9.73324L15.2428 9.729C15.3021 9.67399 15.3698 9.62321 15.446 9.58089C15.5179 9.54281 15.5983 9.50895 15.6872 9.48356C15.7591 9.4624 15.8353 9.44124 15.9157 9.43278C15.9961 9.42009 16.0765 9.42008 16.1611 9.42008H20.2617C20.4691 9.42008 20.6595 9.44548 20.8245 9.50472C21.0023 9.56396 21.1462 9.65283 21.2731 9.77132C21.4043 9.89404 21.5059 10.0422 21.5736 10.2114C21.637 10.3807 21.6709 10.5669 21.6709 10.7743C21.6709 10.9393 21.654 11.0916 21.6201 11.2313C21.6032 11.3075 21.5778 11.3879 21.5524 11.4598C21.5228 11.5317 21.4847 11.5994 21.4466 11.6629C21.417 11.7052 21.3831 11.756 21.3408 11.8153C21.2985 11.8703 21.2562 11.9295 21.2054 11.993L21.0361 12.1961C20.9854 12.2596 20.9261 12.3358 20.8499 12.4162L18.2305 15.5308H20.7399C20.9007 15.5308 21.0531 15.5519 21.1969 15.59C21.2816 15.6112 21.3577 15.645 21.4297 15.6831C21.5016 15.717 21.5693 15.7635 21.6328 15.8185H21.637C21.7005 15.8693 21.7598 15.9328 21.8063 15.9963C21.8571 16.064 21.8994 16.1317 21.9333 16.2078L21.946 16.2459C21.9714 16.3094 21.9883 16.3813 22.0052 16.4533C22.0179 16.5252 22.0264 16.6014 22.0264 16.6733C22.0264 16.7537 22.0179 16.8299 22.0052 16.9103C21.9883 16.9865 21.9671 17.0627 21.9375 17.1346C21.9121 17.2108 21.8698 17.2827 21.8232 17.3504C21.7767 17.4181 21.7217 17.4816 21.6582 17.5366L21.654 17.5451C21.5905 17.6043 21.5228 17.6509 21.4508 17.689C21.3789 17.7313 21.3027 17.7609 21.2181 17.7863L21.1885 17.7905C21.1208 17.8117 21.0488 17.8244 20.9769 17.8371C20.9049 17.8413 20.8288 17.8498 20.7484 17.8498H16.0553C15.9495 17.8498 15.848 17.8455 15.7464 17.8286C15.6491 17.8159 15.5518 17.799 15.4629 17.7694H15.4587C15.3613 17.7397 15.264 17.7017 15.1751 17.6551C15.0905 17.6043 15.0059 17.5493 14.9339 17.4816C14.8577 17.4181 14.7943 17.3462 14.735 17.27C14.6758 17.1896 14.6292 17.105 14.5954 17.0119C14.5573 16.9272 14.5277 16.8341 14.5107 16.741C14.4938 16.648 14.4854 16.5506 14.4854 16.4533C14.4854 16.3771 14.4896 16.3009 14.5065 16.2248C14.5192 16.1486 14.5404 16.0767 14.57 16.0047C14.5742 15.9793 14.5996 15.937 14.6081 15.9116L14.6504 15.8354C14.6631 15.8101 14.68 15.7847 14.6969 15.7593C14.7181 15.7297 14.7393 15.7 14.7604 15.6746L14.752 15.6704L15.1667 15.1626Z" fill="#0A2540"/>
</g>
<defs>
<clipPath id="clip0_176_757">
<rect width="52" height="52" fill="white"/>
</clipPath>
</defs>
</svg>
