<svg width="82" height="82" viewBox="0 0 82 82" fill="none" xmlns="http://www.w3.org/2000/svg">
<path d="M40.9087 21.424V32.9922" stroke="#0A2540" stroke-width="4" stroke-miterlimit="10" stroke-linecap="round"/>
<path d="M40.9782 6C28.1942 6 17.8419 16.3523 17.8419 29.1364V36.4316C17.8419 38.7939 16.8692 42.3373 15.6533 44.3522L11.2414 51.7169C8.53177 56.2678 10.4077 61.3397 15.4102 63.0072C32.0155 68.5307 49.9757 68.5307 66.5811 63.0072C71.2709 61.4439 73.2857 55.9551 70.7498 51.7169L66.3379 44.3522C65.122 42.3373 64.1493 38.7592 64.1493 36.4316V29.1364C64.1146 16.4218 53.6928 6 40.9782 6Z" stroke="#0A2540" stroke-width="4" stroke-miterlimit="10" stroke-linecap="round"/>
<path d="M52.477 64.4319C52.477 70.7892 47.2662 76.0001 40.9089 76.0001C37.7476 76.0001 34.8295 74.68 32.7453 72.5956C30.6609 70.5113 29.3408 67.5932 29.3408 64.4319" stroke="#0A2540" stroke-width="4" stroke-miterlimit="10"/>
</svg>
