<svg width="20" height="20" viewBox="0 0 20 20" fill="none" xmlns="http://www.w3.org/2000/svg">
<g clip-path="url(#clip0_172_1058)">
<path d="M18.75 9.53125H16.6712C16.4306 6.20688 13.7931 3.56938 10.4906 3.33L10.4688 3.32875V1.25C10.4688 0.99125 10.2587 0.78125 10 0.78125C9.74125 0.78125 9.53125 0.99125 9.53125 1.25V3.32875C6.20688 3.56938 3.56938 6.20688 3.33 9.50937L3.32875 9.53125H1.25C0.99125 9.53125 0.78125 9.74125 0.78125 10C0.78125 10.2587 0.99125 10.4688 1.25 10.4688H3.32875C3.56938 13.7931 6.20688 16.4306 9.50937 16.67L9.53125 16.6712V18.75C9.53125 19.0088 9.74125 19.2188 10 19.2188C10.2587 19.2188 10.4688 19.0088 10.4688 18.75V16.6712C13.7931 16.4306 16.4306 13.7931 16.67 10.4906L16.6712 10.4688H18.75C19.0088 10.4688 19.2188 10.2587 19.2188 10C19.2188 9.74125 19.0088 9.53125 18.75 9.53125ZM10 15.7812C6.80687 15.7812 4.21875 13.1931 4.21875 10C4.21875 6.80687 6.80687 4.21875 10 4.21875C13.1931 4.21875 15.7812 6.80687 15.7812 10C15.7775 13.1912 13.1906 15.7775 10 15.7812ZM10 7.03125C8.36063 7.03125 7.03125 8.36063 7.03125 10C7.03125 11.6394 8.36063 12.9688 10 12.9688C11.6394 12.9688 12.9688 11.6394 12.9688 10C12.9669 8.36125 11.6388 7.03312 10 7.03125ZM10 12.0312C8.87813 12.0312 7.96875 11.1219 7.96875 10C7.96875 8.87813 8.87813 7.96875 10 7.96875C11.1219 7.96875 12.0312 8.87813 12.0312 10C12.03 11.1213 11.1213 12.03 10 12.0312Z" fill="#425466"/>
</g>
<defs>
<clipPath id="clip0_172_1058">
<rect width="20" height="20" fill="white"/>
</clipPath>
</defs>
</svg>
