<svg width="24" height="26" viewBox="0 0 24 26" fill="none" xmlns="http://www.w3.org/2000/svg">
<g filter="url(#filter0_d_81_135)">
<path opacity="0.2" d="M15.9367 15.2768C15.297 15.6462 14.5908 15.8859 13.8584 15.9823C13.1261 16.0787 12.3819 16.03 11.6684 15.8388C10.9549 15.6476 10.286 15.3177 9.69996 14.8681C9.11392 14.4184 8.6222 13.8577 8.25286 13.2179L5.29973 8.10298C5.11325 7.77999 5.06272 7.39614 5.15925 7.03589C5.25578 6.67564 5.49147 6.36848 5.81446 6.182C6.13745 5.99552 6.5213 5.94499 6.88155 6.04152C7.2418 6.13805 7.54896 6.37374 7.73544 6.69673L6.61044 4.74817C6.51801 4.58824 6.45801 4.41167 6.43384 4.22854C6.40968 4.04541 6.42183 3.85931 6.4696 3.68088C6.51737 3.50245 6.59983 3.33518 6.71226 3.18862C6.8247 3.04206 6.9649 2.91909 7.12487 2.82674C7.28484 2.73438 7.46144 2.67444 7.64457 2.65035C7.82771 2.62625 8.0138 2.63848 8.19222 2.68632C8.37063 2.73416 8.53787 2.81668 8.68438 2.92917C8.83089 3.04166 8.95381 3.18192 9.0461 3.34192L9.6086 4.3162C9.42212 3.9932 9.37159 3.60936 9.46812 3.24911C9.56465 2.88885 9.80034 2.5817 10.1233 2.39522C10.4463 2.20874 10.8302 2.15821 11.1904 2.25474C11.5507 2.35127 11.8578 2.58695 12.0443 2.90995L14.1537 6.5635C13.9672 6.2405 13.9167 5.85666 14.0132 5.4964C14.1097 5.13615 14.3454 4.829 14.6684 4.64252C14.9914 4.45604 15.3752 4.4055 15.7355 4.50203C16.0958 4.59856 16.4029 4.83425 16.5894 5.15725L17.9956 7.59294C18.365 8.23266 18.6047 8.93887 18.7011 9.67123C18.7975 10.4036 18.7488 11.1478 18.5576 11.8613C18.3664 12.5748 18.0365 13.2437 17.5868 13.8297C17.1372 14.4158 16.5765 14.9075 15.9367 15.2768Z" fill="#0A2540"/>
<path d="M18.483 7.31168L17.0768 4.87601C16.9105 4.58861 16.6743 4.34789 16.3901 4.17619C16.1059 4.0045 15.7829 3.90741 15.4511 3.89392C15.1194 3.88044 14.7896 3.951 14.4924 4.09906C14.1952 4.24712 13.9402 4.46788 13.7511 4.74084L12.5317 2.62865C12.3612 2.33314 12.1168 2.08703 11.8225 1.91445C11.5282 1.74188 11.194 1.64877 10.8529 1.64427C10.5118 1.63976 10.1753 1.72401 9.87654 1.88875C9.57777 2.05349 9.32696 2.29306 9.14871 2.58397C8.80063 2.26949 8.35171 2.08962 7.88279 2.07674C7.41387 2.06386 6.95576 2.21883 6.59095 2.51373C6.22614 2.80863 5.9786 3.22409 5.89291 3.6853C5.80722 4.1465 5.88901 4.62315 6.12355 5.0294L6.35935 5.43784C6.02825 5.46443 5.70927 5.5744 5.43213 5.75748C5.15498 5.94057 4.92868 6.19082 4.7743 6.48493C4.61992 6.77904 4.5425 7.10743 4.54923 7.43953C4.55597 7.77162 4.64664 8.09661 4.81282 8.38422L7.76594 13.4992C8.17222 14.2029 8.71312 14.8196 9.35776 15.3143C10.0024 15.8089 10.7382 16.1718 11.523 16.3821C12.3079 16.5924 13.1265 16.646 13.9321 16.54C14.7377 16.4339 15.5145 16.1702 16.2182 15.7639C16.9219 15.3577 17.5387 14.8168 18.0333 14.1721C18.528 13.5275 18.8908 12.7917 19.1011 12.0069C19.3114 11.222 19.3651 10.4034 19.259 9.59779C19.1529 8.79219 18.8892 8.01537 18.483 7.31168ZM18.0145 11.7157C17.7553 12.6829 17.2152 13.5514 16.4624 14.2116C15.7096 14.8718 14.7779 15.2939 13.7852 15.4246C12.7926 15.5553 11.7834 15.3887 10.8854 14.9458C9.98738 14.503 9.24086 13.8038 8.74022 12.9367L5.7871 7.82175C5.67541 7.62797 5.64523 7.39777 5.7032 7.18175C5.76116 6.96573 5.90253 6.78156 6.09622 6.66973C6.28992 6.55789 6.52009 6.52754 6.73616 6.58534C6.95222 6.64313 7.1365 6.78436 7.24848 6.97797L8.79536 9.65726C8.80712 9.67733 8.82012 9.69666 8.83426 9.71513C8.83814 9.72026 8.84222 9.72511 8.84624 9.73007C8.85709 9.74347 8.86844 9.75625 8.8803 9.76842C8.88469 9.77293 8.88895 9.77753 8.89348 9.78186C8.90939 9.79732 8.9262 9.8118 8.94385 9.82524C8.94477 9.82597 8.94584 9.82654 8.9468 9.82726C8.96354 9.83961 8.98096 9.85101 8.99898 9.86141C9.00451 9.86464 9.01014 9.86758 9.01577 9.87061C9.03033 9.87846 9.0452 9.88564 9.06037 9.89214C9.06579 9.89447 9.07112 9.89694 9.07658 9.8991C9.09687 9.90718 9.11762 9.91409 9.13872 9.91977C9.1403 9.92019 9.14191 9.92041 9.14349 9.92081C9.1631 9.92575 9.18296 9.92964 9.20299 9.93244C9.20903 9.93331 9.21511 9.93394 9.22118 9.93461C9.23804 9.93648 9.25498 9.93758 9.27199 9.9379C9.2757 9.93797 9.27938 9.93861 9.28308 9.93861C9.28487 9.93861 9.28669 9.93828 9.28847 9.93827C9.31035 9.93815 9.3322 9.93675 9.35391 9.93407C9.35559 9.93385 9.35728 9.93341 9.35899 9.93318C9.37896 9.93039 9.39877 9.92651 9.41832 9.92157C9.4246 9.92 9.43082 9.91813 9.43706 9.91634C9.45286 9.91181 9.46852 9.90654 9.48407 9.90053C9.49018 9.89817 9.49629 9.89598 9.50233 9.8934C9.5759 9.86263 9.64204 9.81649 9.69633 9.75808C9.75062 9.69967 9.7918 9.63033 9.81711 9.5547C9.84242 9.47908 9.85128 9.39893 9.8431 9.3196C9.83491 9.24028 9.80986 9.16362 9.76964 9.09476L8.22277 6.41543L8.22256 6.41507L7.09777 4.46687C6.98611 4.27308 6.95595 4.04289 7.01394 3.82688C7.07192 3.61087 7.21329 3.42672 7.40699 3.31489C7.60068 3.20307 7.83085 3.17273 8.04691 3.23053C8.26297 3.28833 8.44724 3.42955 8.55922 3.62315L9.12055 4.59545L9.12165 4.59743L10.9498 7.76387C10.9867 7.82784 11.0359 7.88391 11.0945 7.92888C11.1531 7.97385 11.22 8.00683 11.2913 8.02595C11.3627 8.04507 11.4371 8.04995 11.5103 8.04031C11.5836 8.03066 11.6542 8.00669 11.7182 7.96976C11.7821 7.93282 11.8382 7.88365 11.8832 7.82505C11.9281 7.76644 11.9611 7.69955 11.9803 7.6282C11.9994 7.55685 12.0042 7.48243 11.9946 7.4092C11.985 7.33596 11.961 7.26534 11.9241 7.20137L10.096 4.03493C10.0406 3.93897 10.0046 3.83304 9.99018 3.72318C9.97572 3.61333 9.98304 3.5017 10.0117 3.39467C10.0404 3.28764 10.0899 3.18731 10.1573 3.0994C10.2248 3.01149 10.3089 2.93773 10.4049 2.88233C10.5008 2.82693 10.6068 2.79097 10.7166 2.77651C10.8265 2.76205 10.9381 2.76937 11.0451 2.79805C11.1522 2.82673 11.2525 2.87621 11.3404 2.94366C11.4283 3.01112 11.5021 3.09522 11.5575 3.19118L13.6667 6.84445L13.6668 6.84476L14.1118 7.61562C13.4974 8.12426 13.0829 8.83396 12.9417 9.619C12.8005 10.404 12.9418 11.2137 13.3405 11.9045C13.3774 11.9685 13.4266 12.0246 13.4852 12.0695C13.5438 12.1145 13.6107 12.1475 13.682 12.1666C13.7534 12.1857 13.8278 12.1906 13.901 12.181C13.9742 12.1713 14.0449 12.1473 14.1088 12.1104C14.1728 12.0735 14.2289 12.0243 14.2738 11.9657C14.3188 11.9071 14.3518 11.8402 14.3709 11.7689C14.39 11.6975 14.3949 11.6231 14.3852 11.5499C14.3756 11.4766 14.3516 11.406 14.3147 11.342C14.0163 10.8252 13.9355 10.2111 14.0899 9.63468C14.2444 9.05828 14.6215 8.56684 15.1383 8.26848C15.1545 8.25912 15.1702 8.24895 15.1854 8.23801C15.1981 8.22893 15.21 8.21914 15.2217 8.20918C15.2239 8.20729 15.2263 8.20563 15.2285 8.2037C15.242 8.19192 15.2546 8.17952 15.2667 8.16667L15.2679 8.16556C15.28 8.15258 15.2914 8.1391 15.3022 8.12513L15.3034 8.12366C15.3135 8.1104 15.3229 8.09666 15.3318 8.08263C15.3327 8.08115 15.3338 8.07979 15.3347 8.07831C15.3427 8.06545 15.3499 8.05218 15.3568 8.03878C15.3583 8.03579 15.3601 8.03297 15.3616 8.02995C15.3678 8.0174 15.3731 8.0045 15.3783 7.99155C15.3799 7.98742 15.382 7.98346 15.3836 7.97928C15.3892 7.96417 15.394 7.94876 15.3984 7.93323C15.399 7.9311 15.3998 7.92908 15.4004 7.92694C15.401 7.92485 15.4012 7.92273 15.4018 7.92064C15.4058 7.90498 15.4093 7.8892 15.412 7.87324C15.4128 7.86833 15.413 7.86339 15.4137 7.85848C15.4156 7.84518 15.4174 7.83188 15.4183 7.81845C15.4186 7.81436 15.4184 7.81028 15.4186 7.80618C15.4192 7.79189 15.4197 7.77759 15.4193 7.76324C15.4192 7.7605 15.4187 7.75779 15.4186 7.75506C15.4179 7.73947 15.4168 7.72387 15.4148 7.70829C15.4146 7.70652 15.4141 7.70479 15.4139 7.70303C15.4116 7.68672 15.4088 7.67044 15.405 7.65425C15.4045 7.65229 15.4038 7.65039 15.4034 7.64845C15.3995 7.6327 15.3953 7.61702 15.39 7.6015C15.3885 7.59691 15.3864 7.59249 15.3847 7.58794C15.38 7.57527 15.3754 7.56261 15.3698 7.55016C15.3621 7.53305 15.3536 7.51634 15.3442 7.50009L14.641 6.28222C14.5294 6.08843 14.4992 5.85824 14.5572 5.64223C14.6152 5.42622 14.7566 5.24207 14.9503 5.13024C15.144 5.01842 15.3741 4.98808 15.5902 5.04588C15.8062 5.10368 15.9905 5.2449 16.1025 5.4385L17.5088 7.87417C17.8429 8.44926 18.0596 9.08489 18.1464 9.74429C18.2332 10.4037 18.1883 11.0738 18.0145 11.7157ZM9.16409 17.1957C9.122 17.2564 9.06837 17.3083 9.00625 17.3483C8.94414 17.3882 8.87475 17.4156 8.80206 17.4287C8.72937 17.4419 8.6548 17.4406 8.58261 17.425C8.51041 17.4093 8.44201 17.3796 8.38131 17.3375C7.35878 16.6297 6.50695 15.7028 5.88783 14.6243C5.81324 14.4952 5.79302 14.3416 5.83163 14.1975C5.87023 14.0534 5.9645 13.9306 6.09369 13.856C6.22287 13.7814 6.3764 13.7612 6.5205 13.7998C6.66459 13.8384 6.78745 13.9327 6.86204 14.0618C7.39843 14.9964 8.13644 15.7996 9.02237 16.413C9.14496 16.498 9.22877 16.6282 9.25535 16.775C9.28192 16.9218 9.2491 17.0731 9.16409 17.1957ZM14.8124 2.17917C14.8126 2.03008 14.8719 1.88714 14.9774 1.78176C15.0828 1.67638 15.2258 1.61719 15.3749 1.61719H15.3755C16.1156 1.61891 16.8423 1.81461 17.4832 2.18478C18.124 2.55495 18.6567 3.08665 19.028 3.72687C19.0649 3.79085 19.0889 3.86149 19.0986 3.93475C19.1083 4.00801 19.1034 4.08246 19.0843 4.15385C19.0652 4.22523 19.0322 4.29215 18.9872 4.35078C18.9423 4.40941 18.8862 4.45861 18.8222 4.49555C18.7582 4.5325 18.6875 4.55648 18.6143 4.56611C18.541 4.57574 18.4665 4.57085 18.3952 4.5517C18.3238 4.53255 18.2569 4.49953 18.1983 4.45452C18.1397 4.40951 18.0905 4.35339 18.0536 4.28937C17.7812 3.81979 17.3905 3.42982 16.9204 3.15835C16.4503 2.88688 15.9172 2.74339 15.3744 2.74219C15.2252 2.74204 15.0822 2.68264 14.9768 2.57706C14.8714 2.47147 14.8123 2.32835 14.8124 2.17917Z" fill="#0A2540"/>
</g>
<defs>
<filter id="filter0_d_81_135" x="-1" y="0" width="26" height="26" filterUnits="userSpaceOnUse" color-interpolation-filters="sRGB">
<feFlood flood-opacity="0" result="BackgroundImageFix"/>
<feColorMatrix in="SourceAlpha" type="matrix" values="0 0 0 0 0 0 0 0 0 0 0 0 0 0 0 0 0 0 127 0" result="hardAlpha"/>
<feOffset dy="4"/>
<feGaussianBlur stdDeviation="2"/>
<feComposite in2="hardAlpha" operator="out"/>
<feColorMatrix type="matrix" values="0 0 0 0 0 0 0 0 0 0 0 0 0 0 0 0 0 0 0.25 0"/>
<feBlend mode="normal" in2="BackgroundImageFix" result="effect1_dropShadow_81_135"/>
<feBlend mode="normal" in="SourceGraphic" in2="effect1_dropShadow_81_135" result="shape"/>
</filter>
</defs>
</svg>
