<svg width="48" height="48" viewBox="0 0 48 48" fill="none" xmlns="http://www.w3.org/2000/svg">
<g clip-path="url(#clip0_125_1403)">
<path d="M31.82 26.68L37.092 18.628L36.184 17.816L28.838 24.014C27.488 23.738 26.034 24.15 25.05 25.25C23.578 26.896 23.72 29.426 25.368 30.898C27.016 32.37 29.544 32.228 31.016 30.58C32 29.48 32.246 27.99 31.82 26.68ZM24 5.388V0H32V5.388C29.122 4.902 26.816 4.912 24 5.388ZM41.702 9.516L44.516 6.702L47.344 9.53L44.702 12.172C43.778 11.204 42.774 10.318 41.702 9.516ZM4 18H20V22H4V18ZM0 26H16V30H0V26ZM6 34H20V38H6V34ZM48 28C48 39.046 39.046 48 28 48C22.42 48 17.4 45.69 13.778 42H20.338C22.614 43.262 25.216 44 28 44C36.822 44 44 36.822 44 28C44 19.178 36.822 12 28 12C25.216 12 22.614 12.738 20.338 14H13.778C17.4 10.31 22.42 8 28 8C39.046 8 48 16.954 48 28Z" fill="#0A2540"/>
</g>
<defs>
<clipPath id="clip0_125_1403">
<rect width="48" height="48" fill="white"/>
</clipPath>
</defs>
</svg>
