<svg width="120" height="120" viewBox="0 0 120 120" fill="none" xmlns="http://www.w3.org/2000/svg">
<g clip-path="url(#clip0_125_1350)">
<path d="M28.135 95.135L39.46 111.93C36.245 114.17 33.365 116.885 30.92 120L28.52 107.47H15C18.725 102.725 23.155 98.56 28.135 95.135ZM91.865 95.135L80.54 111.93C83.755 114.17 86.635 116.885 89.08 120L91.48 107.47H105C101.275 102.725 96.845 98.56 91.865 95.135ZM60 83.195C49.01 83.195 38.72 86.17 29.885 91.355L41.24 108.195C46.83 105.16 53.22 103.455 60 103.455C66.78 103.455 73.17 105.155 78.76 108.195L90.115 91.355C81.28 86.17 70.99 83.195 60 83.195ZM48.295 99.57L45.61 98.135L42.93 99.57L43.465 96.575L41.275 94.47L44.285 94.055L45.61 91.32L46.94 94.055L49.955 94.47L47.765 96.575L48.295 99.57ZM64.04 98.995L59.95 96.805L55.85 98.995L56.67 94.42L53.315 91.205L57.92 90.57L59.95 86.395L61.975 90.57L66.575 91.205L63.22 94.42L64.04 98.995ZM76.955 99.57L74.275 98.135L71.595 99.57L72.125 96.575L69.935 94.47L72.95 94.055L74.28 91.32L75.605 94.055L78.62 94.47L76.43 96.575L76.955 99.57ZM90.045 48.28C88.615 51.47 87.12 54.435 85.635 57.195C105.96 50.455 118.14 30.525 120 10H99.615C99.435 12.41 99.215 14.775 98.92 17.025H112.36C110.23 27.03 104.62 40.67 90.045 48.28ZM60 78.195C62.885 78.195 65.76 78.39 68.605 78.77C74.71 61.43 95 43.795 95 0H25C25 43.79 45.325 61.425 51.45 78.76C54.27 78.385 57.13 78.195 60 78.195ZM84.605 10C82.765 32.53 74.84 46.15 67.745 58.345C64.86 63.31 62.065 68.11 60.03 73.095C57.99 68.105 55.185 63.3 52.29 58.33C45.18 46.145 37.235 32.525 35.395 10H84.605ZM34.365 57.19C32.88 54.43 31.385 51.465 29.955 48.275C15.38 40.67 9.77 27.025 7.635 17.02H21.075C20.785 14.775 20.565 12.41 20.385 10H0C1.86 30.525 14.04 50.455 34.365 57.19ZM50.715 15H43.8C45.67 30.59 53.085 50.115 60 57.735C54.375 44.92 50.755 29.74 50.715 15Z" fill="#0A2540" fill-opacity="0.1"/>
</g>
<defs>
<clipPath id="clip0_125_1350">
<rect width="120" height="120" fill="white"/>
</clipPath>
</defs>
</svg>
