<svg width="56" height="56" viewBox="0 0 56 56" fill="none" xmlns="http://www.w3.org/2000/svg">
<path d="M27.7085 53.0833C41.7227 53.0833 53.0835 41.7225 53.0835 27.7083C53.0835 13.694 41.7227 2.33325 27.7085 2.33325C13.6943 2.33325 2.3335 13.694 2.3335 27.7083C2.3335 41.7225 13.6943 53.0833 27.7085 53.0833Z" stroke="#0A2540" stroke-width="3" stroke-linecap="round" stroke-linejoin="round"/>
<path d="M8.54736 20.4578C12.3804 20.4578 12.3804 34.9586 16.2125 34.9586C20.0445 34.9586 20.0435 20.4578 23.8755 20.4578C27.7076 20.4578 27.7086 34.9586 31.5406 34.9586C35.3727 34.9586 35.3727 20.4578 39.2047 20.4578C43.0367 20.4578 43.0367 34.9586 46.8698 34.9586" stroke="#0A2540" stroke-width="3" stroke-linecap="round" stroke-linejoin="round"/>
</svg>
