<svg width="52" height="52" viewBox="0 0 52 52" fill="none" xmlns="http://www.w3.org/2000/svg">
<path d="M9.40459 2.13281C6.15459 2.13281 2.90053 4.57031 2.90053 9.44531L9.40459 22.4453L15.9046 9.44531C15.9046 4.57031 12.6546 2.13281 9.40459 2.13281ZM38.0757 6.09375C37.3749 6.1232 36.6944 6.25625 36.1257 6.37813L36.5116 8.16563C37.0804 8.03867 37.6694 7.95844 38.1671 7.92188L38.0757 6.09375ZM9.40459 6.19531C11.2022 6.19531 12.6546 7.6507 12.6546 9.44531C12.6546 11.243 11.2022 12.6953 9.40459 12.6953C7.60998 12.6953 6.15459 11.243 6.15459 9.44531C6.15459 7.6507 7.60998 6.19531 9.40459 6.19531ZM40.0968 6.21563L39.7921 8.01328C40.2897 8.11789 40.7874 8.24891 41.2241 8.51094L42.1077 6.90625C41.4882 6.57617 40.7976 6.27961 40.0968 6.21563ZM34.2569 6.89609C33.6374 7.13781 33.0179 7.35414 32.4897 7.56641L33.2108 9.24219C33.7694 9.00453 34.3585 8.79734 34.8562 8.62266L34.2569 6.89609ZM43.7733 8.25703L42.3819 9.44531C42.7476 9.86375 43.0319 10.3797 43.2554 10.7961L44.8905 9.97344C44.5452 9.3082 44.2405 8.80445 43.7733 8.25703ZM30.7937 8.34844C30.1741 8.6643 29.6663 8.94563 29.1179 9.22188L30.0116 10.8266C30.5397 10.5219 31.1187 10.2273 31.5858 9.99375L30.7937 8.34844ZM27.5132 10.1664C26.9749 10.4813 26.4468 10.7961 25.9288 11.1414L26.9241 12.6648C27.4218 12.3398 27.9397 12.0352 28.4476 11.7305L27.5132 10.1664ZM45.5202 11.9844C44.921 12.0859 44.3116 12.157 43.7124 12.2281C43.753 12.7359 43.7226 13.2844 43.621 13.7109L45.3983 14.1273C45.4999 13.3961 45.5913 12.6445 45.5202 11.9844ZM24.3851 12.157C23.8772 12.5023 23.3796 12.8578 22.8718 13.2031L23.928 14.6961C24.4155 14.3406 24.9132 14.0055 25.4108 13.6602L24.3851 12.157ZM21.3788 14.3C20.871 14.6656 20.3429 15.0719 19.9062 15.407L21.0132 16.8594C21.5718 16.4531 21.9577 16.1484 22.4655 15.7727L21.3788 14.3ZM43.0116 15.1125C42.7069 15.5797 42.3515 16.0469 41.996 16.4023L43.3265 17.6719C43.7632 17.1539 44.2304 16.6258 44.5554 16.0977L43.0116 15.1125ZM18.4538 16.5445C17.9562 16.9305 17.4585 17.3266 17.0218 17.6922L18.1796 19.1039C18.6569 18.7078 19.1444 18.3016 19.5913 17.9766L18.4538 16.5445ZM40.7366 17.5703C40.2694 17.9461 39.7819 18.3117 39.3351 18.6164L40.3812 20.1195C40.9194 19.7539 41.4476 19.3578 41.9046 18.9922L40.7366 17.5703ZM15.6101 18.8805C15.1327 19.2664 14.6757 19.6727 14.2085 20.0688L15.3968 21.4602C15.8538 21.0641 16.3108 20.668 16.778 20.282L15.6101 18.8805ZM37.8421 19.5914C37.3241 19.8961 36.7858 20.2109 36.2983 20.475L37.1718 22.0898C37.7202 21.7547 38.3397 21.4602 38.7968 21.1555L37.8421 19.5914ZM12.8171 21.2773C12.3601 21.6836 11.9132 22.0898 11.4562 22.5063L12.6851 23.8672C13.1319 23.4609 13.589 23.0547 14.0358 22.6484L12.8171 21.2773ZM34.7038 21.318C34.1655 21.582 33.6272 21.8563 33.089 22.1203L33.871 23.7656C34.5007 23.4609 34.9679 23.207 35.5366 22.943L34.7038 21.318ZM31.4538 22.882C30.8952 23.1359 30.3569 23.3797 29.7882 23.6133L30.5296 25.2891C31.0882 25.0453 31.6468 24.7914 32.2054 24.5375L31.4538 22.882ZM10.1155 23.7656C9.59756 24.2227 9.23701 24.5781 8.76475 25.0352L10.0546 26.3555C10.5319 25.8984 10.9179 25.5023 11.3647 25.1164L10.1155 23.7656ZM28.1226 24.3547C27.564 24.5883 27.0054 24.832 26.4468 25.0656L27.1577 26.7617C27.7265 26.5281 28.2851 26.2844 28.8437 26.0406L28.1226 24.3547ZM24.7608 25.7766C24.2022 26.0203 23.6437 26.2641 23.0749 26.4875L23.7858 28.1836C24.3444 27.95 24.9132 27.7063 25.4718 27.4727L24.7608 25.7766ZM43.5296 26.5078C40.2796 26.5078 37.0296 28.9453 37.0296 33.8203L43.5296 46.8203L50.0296 33.8203C50.0296 28.9453 46.7796 26.5078 43.5296 26.5078ZM21.389 27.1984C20.8101 27.4625 20.2007 27.7063 19.703 27.9195L20.4241 29.6055C21.0233 29.3516 21.5921 29.1078 22.0999 28.8844L21.389 27.1984ZM18.0171 28.6406C17.4687 28.8945 16.8288 29.1789 16.3413 29.4023L17.0929 31.068C17.6921 30.8039 18.2202 30.5398 18.7483 30.3164L18.0171 28.6406ZM14.6655 30.1641C14.0968 30.4383 13.5077 30.7227 12.9999 30.9766L13.8226 32.6117C14.371 32.3273 14.9397 32.0633 15.4374 31.8195L14.6655 30.1641ZM43.5296 30.5703C45.3272 30.5703 46.7796 32.0227 46.7796 33.8203C46.7796 35.618 45.3272 37.0703 43.5296 37.0703C41.7319 37.0703 40.2796 35.618 40.2796 33.8203C40.2796 32.0227 41.7319 30.5703 43.5296 30.5703ZM11.3546 31.8195C10.8163 32.1141 10.278 32.4188 9.72959 32.7336L10.6437 34.318C11.1616 34.0133 11.6897 33.7289 12.2179 33.4445L11.3546 31.8195ZM8.13506 33.7188C7.56529 34.0438 7.01482 34.4805 6.54053 34.7953L7.64756 36.2578C8.15232 35.8922 8.69568 35.5164 9.13037 35.2523L8.13506 33.7188ZM5.09834 36.0141C4.61084 36.4609 4.13045 36.9789 3.75771 37.4156L5.14912 38.6039C5.54014 38.1266 5.88037 37.7711 6.3374 37.3648L5.09834 36.0141ZM27.2187 36.1461L27.3812 37.9641C27.9093 37.8727 28.4374 37.9336 28.9655 38.0148L29.2804 36.2172C28.6101 36.1156 27.8991 36.0445 27.2187 36.1461ZM23.4405 37.1617L24.1312 38.8578C24.6593 38.6242 25.2077 38.4414 25.7663 38.2688C25.5733 37.6898 25.4312 37.1008 25.2788 36.5117C24.639 36.6945 23.9991 36.9383 23.4405 37.1617ZM31.3116 37.0703L30.2757 38.5734C30.7022 38.8883 31.1187 39.2234 31.4538 39.6398L32.8351 38.4414C32.3171 37.9133 31.921 37.4156 31.3116 37.0703ZM21.714 37.9844C21.1554 38.2688 20.6171 38.5938 20.0788 38.9086L21.003 40.4828C21.5312 40.1984 22.0491 39.8633 22.5671 39.5891L21.714 37.9844ZM2.64154 39.1016C2.33482 39.7617 2.086 40.4727 1.97021 41.1023L3.76787 41.4172C3.87756 40.8383 4.03498 40.4219 4.26553 39.9242C3.70795 39.6805 3.17576 39.3859 2.64154 39.1016ZM18.4944 39.8938C17.9765 40.2289 17.4687 40.5641 16.9608 40.9094L17.9765 42.4328C18.4843 42.0977 18.9819 41.7523 19.4897 41.4172L18.4944 39.8938ZM34.003 40.0156L32.4694 41.0109C32.7944 41.4984 33.1093 42.0063 33.4038 42.5242L34.9882 41.6102C34.6327 41.0414 34.3788 40.5336 34.003 40.0156ZM15.4476 41.9453C14.9397 42.2805 14.4319 42.6055 13.9343 42.9609L14.9499 44.4844C15.4374 44.1289 15.9554 43.7938 16.4733 43.4484L15.4476 41.9453ZM3.78818 42.9102C3.20014 43.032 2.60701 43.1336 2.01592 43.2453C2.12256 43.9563 2.40795 44.6469 2.66592 45.1953L4.31631 44.4031C4.09592 43.8953 3.8867 43.3672 3.78818 42.9102ZM35.8921 43.1945L34.3077 44.1086C34.6226 44.657 34.9882 45.2461 35.2827 45.7133L36.8163 44.7281C36.471 44.1898 36.1765 43.682 35.8921 43.1945ZM12.4312 43.9563C11.9233 44.2711 11.4257 44.5758 10.8976 44.8703L11.8015 46.4648C12.3397 46.15 12.878 45.8352 13.396 45.5L12.4312 43.9563ZM5.18975 45.6117L3.94053 46.9523C4.50521 47.4906 5.20193 47.8461 5.96162 48.0086L6.36787 46.2313C5.91693 46.1398 5.49545 45.9164 5.18975 45.6117ZM9.35381 45.6422C8.84498 45.8758 8.31686 46.0586 7.76943 46.1703L8.18584 47.9578C8.83787 47.8258 9.45131 47.582 10.0647 47.3281L9.35381 45.6422ZM37.8218 46.1297L36.4101 47.2773C36.8468 47.8156 37.3851 48.3336 37.8522 48.6992L38.9796 47.257C38.5327 46.9117 38.1468 46.4953 37.8218 46.1297ZM40.2694 47.907L39.8124 49.6844C40.6147 49.8469 41.214 49.8977 41.9655 49.8164L41.7421 47.9984C41.2444 48.0797 40.7569 48.0289 40.2694 47.907Z" fill="black"/>
</svg>
