<svg width="52" height="52" viewBox="0 0 52 52" fill="none" xmlns="http://www.w3.org/2000/svg">
<g clip-path="url(#clip0_174_192)">
<mask id="mask0_174_192" style="mask-type:luminance" maskUnits="userSpaceOnUse" x="0" y="0" width="52" height="52">
<path d="M52 0H0V52H52V0Z" fill="white"/>
</mask>
<g mask="url(#mask0_174_192)">
<path d="M25.8375 9.00732C22.2991 9.00732 18.84 10.0566 15.8979 12.0224C12.9557 13.9883 10.6625 16.7824 9.30834 20.0515C7.95415 23.3206 7.59975 26.9178 8.28995 30.3884C8.98016 33.8589 10.684 37.0468 13.1859 39.549C15.6879 42.0512 18.8757 43.7553 22.3461 44.4458C25.8166 45.1364 29.4139 44.7823 32.6831 43.4284C35.9523 42.0745 38.7467 39.7816 40.7128 36.8396C42.6789 33.8976 43.7285 30.4387 43.7288 26.9002C43.7236 22.1566 41.8371 17.6087 38.483 14.2543C35.1289 10.8999 30.5812 9.01292 25.8375 9.00732ZM26.65 43.1128V41.6763C26.65 41.4591 26.5638 41.2508 26.4102 41.0972C26.2566 40.9436 26.0483 40.8573 25.831 40.8573C25.6138 40.8573 25.4055 40.9436 25.2519 41.0972C25.0983 41.2508 25.012 41.4591 25.012 41.6763V43.1128C20.9963 42.9062 17.1998 41.2181 14.3565 38.3748C11.5132 35.5314 9.82502 31.735 9.61842 27.7192H11.05C11.2673 27.7192 11.4756 27.6329 11.6292 27.4793C11.7828 27.3257 11.869 27.1174 11.869 26.9002C11.869 26.683 11.7828 26.4747 11.6292 26.3211C11.4756 26.1675 11.2673 26.0812 11.05 26.0812H9.6168C9.82301 22.0652 11.511 18.2683 14.3543 15.4246C17.1977 12.581 20.9944 10.8926 25.0104 10.6859V12.1241C25.0104 12.3413 25.0967 12.5496 25.2503 12.7032C25.4039 12.8568 25.6122 12.9431 25.8294 12.9431C26.0466 12.9431 26.2549 12.8568 26.4085 12.7032C26.5621 12.5496 26.6484 12.3413 26.6484 12.1241V10.6859C30.6644 10.8926 34.4612 12.581 37.3045 15.4246C40.1479 18.2683 41.8358 22.0652 42.042 26.0812H40.6039C40.3867 26.0812 40.1784 26.1675 40.0248 26.3211C39.8712 26.4747 39.7849 26.683 39.7849 26.9002C39.7849 27.1174 39.8712 27.3257 40.0248 27.4793C40.1784 27.6329 40.3867 27.7192 40.6039 27.7192H42.042C41.8355 31.7347 40.1476 35.531 37.3046 38.3743C34.4616 41.2175 30.6655 42.9058 26.65 43.1128Z" fill="#0A2540"/>
<path d="M33.7403 16.3587L25.2058 26.3688C25.0708 26.5248 25.0003 26.7263 25.0084 26.9324C25.0166 27.1385 25.1028 27.3338 25.2497 27.4787L30.8283 33.0573C30.9044 33.1333 30.9947 33.1937 31.0941 33.2349C31.1935 33.2761 31.3 33.2972 31.4076 33.2972C31.5152 33.2972 31.6217 33.2761 31.7211 33.2349C31.8205 33.1937 31.9108 33.1333 31.9869 33.0573C32.063 32.9812 32.1233 32.8909 32.1645 32.7915C32.2057 32.6921 32.2269 32.5856 32.2269 32.478C32.2269 32.3704 32.2057 32.2638 32.1645 32.1644C32.1233 32.065 32.063 31.9747 31.9869 31.8987L26.9494 26.8611L34.9948 17.4264C35.1357 17.2609 35.2051 17.0462 35.1878 16.8295C35.1704 16.6128 35.0676 16.412 34.9022 16.271C34.7367 16.1301 34.522 16.0607 34.3053 16.0781C34.0886 16.0954 33.8877 16.1982 33.7468 16.3637L33.7403 16.3587Z" fill="#0A2540"/>
<path d="M48.7144 12.5124C48.79 12.5893 48.8802 12.6503 48.9797 12.692C49.0791 12.7337 49.1859 12.7552 49.2937 12.7552C49.4016 12.7552 49.5083 12.7337 49.6078 12.692C49.7073 12.6503 49.7974 12.5893 49.873 12.5124C51.108 11.2774 51.8018 9.60245 51.8018 7.85595C51.8018 6.10945 51.108 4.43446 49.873 3.1995C49.2616 2.58801 48.5356 2.10296 47.7367 1.77202C46.9377 1.44108 46.0814 1.27075 45.2166 1.27075C43.4701 1.27075 41.7951 1.96453 40.5602 3.1995C40.4833 3.27511 40.4222 3.3653 40.3805 3.46476C40.3388 3.56422 40.3174 3.67098 40.3174 3.77882C40.3174 3.88666 40.3388 3.99342 40.3805 4.09288C40.4222 4.19234 40.4833 4.28253 40.5602 4.35814L44.0393 7.83725L42.1754 9.65402C37.7949 5.4718 31.9776 3.12809 25.9213 3.10542C19.8649 3.08275 14.0303 5.38282 9.61854 9.53213L7.94154 7.85674L11.4402 4.35814C11.5171 4.28253 11.5781 4.19234 11.6198 4.09288C11.6615 3.99342 11.683 3.88666 11.683 3.77882C11.683 3.67098 11.6615 3.56422 11.6198 3.46476C11.5781 3.3653 11.5171 3.27511 11.4402 3.1995C10.1859 2.00162 8.51815 1.33324 6.78373 1.33324C5.04931 1.33324 3.38161 2.00162 2.12729 3.1995C1.51572 3.81094 1.03058 4.53687 0.699591 5.33583C0.368602 6.13479 0.198242 6.99114 0.198242 7.85595C0.198242 8.72076 0.368602 9.57711 0.699591 10.3761C1.03058 11.175 1.51572 11.901 2.12729 12.5124C2.20291 12.5893 2.29307 12.6503 2.39253 12.692C2.492 12.7337 2.59876 12.7552 2.7066 12.7552C2.81445 12.7552 2.92121 12.7337 3.02067 12.692C3.12013 12.6503 3.2103 12.5893 3.28592 12.5124L6.78454 9.01539L8.45992 10.6891C4.20741 15.2144 1.90155 21.2284 2.03861 27.4367C2.17568 33.6451 4.74471 39.5514 9.19279 43.8847C9.12682 43.9214 9.0638 43.9633 9.00429 44.0098L5.07829 47.9374C4.91939 48.0879 4.79225 48.2687 4.70439 48.4691C4.61653 48.6695 4.56973 48.8856 4.56676 49.1044C4.56378 49.3232 4.60469 49.5405 4.68706 49.7432C4.76944 49.946 4.89161 50.1302 5.04636 50.2849C5.20112 50.4397 5.38531 50.5619 5.58807 50.6443C5.79083 50.7266 6.00805 50.7675 6.22688 50.7645C6.44571 50.7615 6.66173 50.7148 6.86218 50.6269C7.06262 50.539 7.24343 50.4119 7.39392 50.253L11.3199 46.3287C11.4303 46.208 11.5213 46.071 11.5897 45.9224C15.5096 48.8813 20.2531 50.547 25.1624 50.6885C30.0717 50.8301 34.9033 49.4403 38.9872 46.7121L42.5622 50.2059C42.8729 50.5097 43.2916 50.6777 43.7262 50.6728C44.1608 50.6679 44.5756 50.4906 44.8794 50.1799C45.1833 49.8692 45.3512 49.4505 45.3463 49.0159C45.3415 48.5813 45.1642 48.1665 44.8534 47.8627L41.5937 44.6776C43.9644 42.5902 45.8935 40.0495 47.2672 37.2051C48.6409 34.3607 49.4314 31.2701 49.5922 28.1154C49.753 24.9607 49.2809 21.8058 48.2036 18.8364C47.1263 15.867 45.4656 13.1433 43.3194 10.8256L45.1963 8.99749L48.7144 12.5124ZM2.76267 10.7249C2.08304 9.77194 1.76324 8.60892 1.86007 7.44246C1.9569 6.276 2.4641 5.18162 3.29156 4.35378C4.11901 3.52593 5.21314 3.01823 6.37956 2.92085C7.54597 2.82346 8.70914 3.14269 9.66242 3.82187L6.20767 7.2734L2.76267 10.7249ZM25.8377 47.4174C21.7798 47.4171 17.8132 46.2135 14.4393 43.9588C11.0655 41.7041 8.43601 38.4997 6.88336 34.7506C5.3307 31.0016 4.92463 26.8763 5.71647 22.8964C6.50832 18.9166 8.46253 15.2609 11.332 12.3916C14.2014 9.52242 17.8573 7.56853 21.8372 6.777C25.8171 5.98547 29.9423 6.39187 33.6913 7.94482C37.4402 9.49777 40.6445 12.1275 42.8989 15.5015C45.1533 18.8755 46.3565 22.8423 46.3565 26.9001C46.3501 32.3399 44.1862 37.5551 40.3395 41.4015C36.4928 45.2479 31.2775 47.4114 25.8377 47.4174ZM48.7225 4.35487C49.5501 5.18234 50.0576 6.27634 50.1549 7.44256C50.2521 8.60878 49.9329 9.77175 49.2539 10.7249L45.8024 7.27177L42.3574 3.8235C43.3173 3.1695 44.473 2.8655 45.6305 2.96255C46.7879 3.0596 47.8768 3.55179 48.7144 4.35651L48.7225 4.35487Z" fill="#0A2540"/>
</g>
</g>
<defs>
<clipPath id="clip0_174_192">
<rect width="52" height="52" fill="white"/>
</clipPath>
</defs>
</svg>
