<svg width="69" height="60" viewBox="0 0 69 60" fill="none" xmlns="http://www.w3.org/2000/svg">
<path d="M1.97924 42.4084C3.06182 42.3775 3.83496 41.5427 3.86597 40.4295C4.20616 26.9795 11.134 17.0234 21.6493 13.1276L28.8555 32.9161C28.9173 33.0707 28.8864 33.1943 28.7318 33.2562C28.608 33.3181 28.5152 33.2562 28.4224 33.1634L24.773 29.2057C22.3916 26.6394 19.3606 26.4539 17.0102 28.4328C14.3504 30.6899 14.3194 34.0601 16.9174 37.2449L27.2781 49.7673C35.1028 59.2286 44.2884 62.166 54.5563 58.4248C66.8348 53.9724 72.0615 42.7176 67.1128 29.113L64.7932 22.7745C62.3813 16.065 57.7728 13.3131 52.3604 15.1992C50.9069 13.3131 48.6801 12.6639 46.2678 13.5296C45.4328 13.8388 44.6286 14.3026 43.8553 14.8901C42.278 12.8494 39.8348 12.1073 37.2987 13.004C36.6182 13.2513 35.9687 13.6223 35.3502 14.0551L31.8246 4.40837C30.4946 0.728902 27.1545 -0.817108 23.7214 0.419673C20.2575 1.68746 18.7111 4.99583 20.0411 8.67517L20.2885 9.35537C8.31943 13.8388 0 25.3718 0 40.3678C0 41.4808 0.927797 42.4392 1.97924 42.4084ZM53.2265 54.3742C45.1234 57.3425 37.5153 55.8275 30.3709 47.201L20.0101 34.7403C18.8968 33.4418 18.8968 32.174 19.8865 31.3083C20.8143 30.4735 22.0823 30.7517 23.1028 31.803L30.2472 39.1927C31.4534 40.4295 32.505 40.5533 33.5255 40.1822C34.7318 39.7493 35.2575 38.4507 34.7626 37.1211L23.8142 7.00555C23.3504 5.76877 23.9071 4.59386 25.0822 4.16089C26.2884 3.72805 27.4019 4.3155 27.8658 5.55228L35.6904 27.0414C36.0616 28.0617 37.206 28.5255 38.2265 28.1546C39.2162 27.7835 39.7421 26.7013 39.3709 25.7119L36.5565 17.9511C36.9894 17.5491 37.577 17.1472 38.1646 16.9307C39.6183 16.4051 40.8245 17.0544 41.3811 18.5694L43.8553 25.3408C44.2265 26.3921 45.3709 26.794 46.3606 26.4231C47.3192 26.0828 47.9379 25.0626 47.5358 23.9804L45.5254 18.5077C45.9585 18.0747 46.5461 17.6727 47.1337 17.4564C48.5873 16.9307 49.7934 17.58 50.3502 19.0951L51.9894 23.6093C52.3914 24.6915 53.5358 25.0934 54.5255 24.7225C55.4841 24.3824 56.0717 23.3311 55.7007 22.2798L54.4636 18.9405C57.0614 18.0128 59.505 20.1154 61.1747 24.7533L63.1231 30.0405C67.3605 41.7282 63.4943 50.633 53.2265 54.3742Z" fill="#FF7900"/>
</svg>
