<svg width="48" height="48" viewBox="0 0 48 48" fill="none" xmlns="http://www.w3.org/2000/svg">
<path d="M39.804 48H34.55L27.71 40H32.976L39.804 48ZM20.258 40L13.418 48H8.164L14.992 40H20.258ZM26 48H22V40H26V48ZM44 32V4H26V0H22V4H4V32H2V36H46V32H44ZM40 32H8V8H40V32ZM12 16.784V14L16 18L21 12L30 19.878L36 15.956V18.392L29.824 22.382L21.224 14.854L16.134 20.962L12 16.784ZM30.91 24.062L29.642 24.88L28.508 23.886L21.45 17.708L17.672 22.242L16.262 23.934L14.714 22.368L12 19.626V28H36V20.774L30.91 24.062Z" fill="#0A2540"/>
</svg>
