<svg width="120" height="120" viewBox="0 0 120 120" fill="none" xmlns="http://www.w3.org/2000/svg">
<path d="M68.75 92.2L64.33 96.45L65.405 102.49L60 99.595L54.595 102.49L55.67 96.45L51.25 92.2L57.325 91.365L60 85.845L62.675 91.365L68.75 92.2ZM85 95C85 108.805 73.81 120 60 120C46.19 120 35 108.805 35 95C35 81.195 46.19 70 60 70C73.81 70 85 81.195 85 95ZM75 95C75 86.73 68.27 80 60 80C51.73 80 45 86.73 45 95C45 103.27 51.73 110 60 110C68.27 110 75 103.27 75 95ZM87.635 49.205L95 45L80 0H70.975L87.635 49.205ZM49.2 0H40L55 45L35 15L25 45L60 65L69.39 59.635L49.2 0ZM74.915 56.475L82.105 52.365L64.38 0H55.795L74.915 56.475Z" fill="#0A2540" fill-opacity="0.1"/>
</svg>
