<svg width="48" height="48" viewBox="0 0 48 48" fill="none" xmlns="http://www.w3.org/2000/svg">
<g clip-path="url(#clip0_125_1397)">
<path d="M26.288 16.342C26.218 16.21 26.972 16.138 27.106 16.138C27.254 16.156 26.714 17.042 26.288 16.342ZM21.984 10.198L22.2 10.136C22.328 10.246 22.056 10.326 22.098 10.408C22.27 10.718 22.14 10.904 22.114 11.072C22.086 11.242 21.906 11.168 21.816 11.258C21.71 11.39 22.332 11.408 22.34 11.428C22.362 11.494 21.59 11.606 21.732 11.77C21.924 12.042 23.38 11.38 23.148 11.418C23.598 11.192 23.206 11.168 22.954 11.038C22.868 10.608 22.796 9.944 22.528 9.678L22.704 9.474C22.292 8.876 21.984 10.198 21.984 10.198ZM48 24C48 37.254 37.254 48 24 48C10.744 48 0 37.254 0 24C0 10.746 10.744 0 24 0C37.254 0 48 10.746 48 24ZM31.38 13.258C31.368 12.966 31 12.69 30.616 13.196C30.346 13.544 30.394 14.074 30.248 14.31C30.04 14.66 31.382 14.988 31.382 14.658C31.432 14.104 32.846 14.532 33.122 14.608C33.618 14.746 34.408 14.156 33.544 13.846C32.834 13.586 32.46 13.308 32.396 12.8C32.396 12.8 32.772 12.448 32.608 12.468C32.172 12.522 31.38 14.04 31.38 13.258ZM43.972 24C43.972 21.93 43.618 19.84 43.258 18.736C43.142 18.388 42.88 18.112 42.54 17.98C42.028 17.78 39.866 19.174 39.54 18.488C39.326 18.03 38.892 18.78 38.396 18.504C38.156 18.372 37.488 17.474 37.186 17.584C36.568 17.806 38.134 19.512 38.562 19.736C38.964 19.432 40.266 18.806 40.546 19.66C41.082 21.268 39.072 23.03 38.044 23.958C36.508 25.346 36.796 23.06 35.75 22.254C35.2 21.832 35.206 20.934 34.65 20.624C34.402 20.484 33.264 19.174 33.274 18.998L33.24 19.33C33.052 19.472 32.652 18.794 32.61 18.688C32.61 19.278 33.57 20.218 33.888 20.69C34.43 21.5 34.72 22.68 35.384 23.342C35.74 23.698 37.1 25.17 37.454 25.138C37.84 25.104 39.06 24.222 39.276 24.272C40.564 24.576 36.244 30.682 35.834 31.438C35.496 32.072 36.11 33.64 36.06 34.39C36.002 35.256 35.32 35.536 34.674 36.008C33.982 36.514 34.144 37.498 33.562 37.858C32.528 38.494 31.784 40.564 30.316 40.554C29.884 40.552 28.036 41.274 27.794 40.568C27.606 40.056 27.354 39.668 27.088 39.162C26.828 38.666 27.058 38.152 26.742 37.714C26.524 37.41 25.792 36.72 25.726 36.36C25.722 36.05 25.96 35.108 26.286 34.944C26.744 34.71 26.374 34.028 26.318 33.632C26.222 32.924 25.784 32.34 25.258 31.93C24.48 31.332 24.882 30.856 25.064 30.002C25.064 29.594 24.816 29.058 24.268 29.218C23.14 29.546 23.482 28.338 22.66 28.392C22.068 28.434 21.584 28.81 21.034 28.976C20.342 29.184 19.634 28.812 18.95 28.726C16.136 28.37 15.218 25.154 15.952 22.834C16.026 22.454 15.724 21.75 15.856 21.456C16.172 20.752 16.816 19.962 17.38 19.428C17.696 19.128 18.102 19.204 18.474 18.97C19.048 18.608 19.056 17.864 19.618 17.408C20.418 16.758 21.51 16.772 22.554 16.632C23.11 16.558 25.226 16.1 25.56 16.512C25.56 16.588 25.942 17.72 25.522 17.656C26.388 17.702 27.622 19.154 28.444 18.814C28.866 18.638 28.712 17.342 29.578 17.968C30.102 18.344 32.45 18.512 32.938 18.106C33.238 17.858 33.406 16.246 33.042 16.064C33.274 16.294 31.82 16.312 31.684 16.26C31.444 16.172 31.22 16.488 30.834 16.31C31.066 16.42 29.542 15.602 30.398 14.976C30.04 15.238 29.706 14.902 29.32 15.19C29.054 15.406 29.444 15.55 29.064 15.738C28.46 16.044 28.004 14.688 27.776 14.534C27.544 14.382 25.748 13.122 26.236 13.944L27.814 15.514C27.736 15.564 27.4 14.942 27.4 15.396C27.506 15.126 27.44 16.554 27.192 16.09C27.082 15.912 27.372 15.812 27.204 15.554C27.204 15.384 26.748 15.218 26.66 15.102C26.41 14.792 25.746 14.108 25.386 13.944C25.286 13.898 23.858 14.118 23.738 14.164C23.598 14.36 23.478 14.566 23.38 14.786C23.084 14.896 22.806 15.038 22.542 15.214L22.228 15.92C22.092 16.042 20.698 16.502 20.69 16.52C20.748 16.37 19.716 16.178 19.784 15.878C19.86 15.548 20.21 14.518 20.12 14.142C20.024 13.748 22.268 14.71 22.412 13.672C22.47 13.222 22.504 12.698 21.786 12.622C21.922 12.638 23.176 12.13 23.384 11.902C23.676 11.566 24.346 11.018 24.832 11.018C25.4 11.018 25.278 10.192 25.54 9.788C25.802 9.894 25.4 10.54 25.714 10.802C25.694 10.596 26.604 10.916 26.692 10.868C26.9 10.76 28.06 10.824 27.88 10.28C27.68 9.726 27.982 9.89 28.242 9.774C28.198 9.792 28.922 8.536 29.046 8.948C28.96 8.524 28.204 9.096 27.94 9.074C27.33 9.026 27.588 8.034 27.818 7.744C27.996 7.514 27.332 7.232 27.324 7.672C27.312 8.33 26.7 8.926 26.842 9.8C27.058 11.118 25.372 9.482 25.224 9.572C24.664 9.912 24.206 9.144 24.496 8.684C24.792 8.214 25.506 8.236 25.8 7.732C26.008 7.376 26.25 6.962 26.57 6.692C27.64 5.794 27.936 6.512 29.002 6.61C30.044 6.706 29.354 6.858 29.21 7.258C29.072 7.638 29.782 7.774 30.028 7.456C30.168 7.272 30.486 6.81 30.624 6.468C30.802 6.024 32.426 6.074 31.292 5.396C30.544 4.95 27.284 4.052 25.1 4.052C24.628 4.052 24.298 4.578 23.938 4.876C23.226 5.466 21.402 6.624 20.388 6.272C19.35 5.914 17.128 7.592 16.772 7.604C16.642 7.612 16.78 6.336 17.488 6.242C17.182 6.288 19.982 4.828 19.906 4.524C19.814 4.164 14.308 6.168 14.554 6.57C14.672 6.754 15.152 6.754 14.522 7.158C14.162 7.376 13.778 8.76 13.44 8.76C12.43 9.202 12.366 7.89 11.242 9.578L9.454 10.298C6.798 13.12 4.96 16.694 4.294 20.664C4.268 20.822 4.962 21.116 5.052 21.224C5.276 21.492 5.276 22.648 5.386 23.026C5.662 23.982 6.344 24.514 6.866 25.384C7.174 25.902 7.686 27.212 7.524 27.756C7.74 27.4 9.664 29.386 10.016 29.8C10.844 30.774 11.482 31.954 10.138 32.918C9.704 33.23 10.798 35.176 10.234 35.654L9.512 35.84C8.8 36.278 9.122 37.352 9.554 37.804C13.19 41.606 18.314 43.978 23.994 43.978C35.028 43.978 43.972 35.034 43.972 24ZM20.958 11.286C21.208 11.176 21.544 11.18 21.58 10.846C21.61 10.55 21.668 10.754 21.74 10.646C21.81 10.54 21.606 10.37 21.52 10.354C21.392 10.326 21.304 10.492 21.222 10.562L21.078 10.6L20.942 10.774L20.958 10.87L20.784 11.082C20.614 11.25 20.788 11.36 20.958 11.286Z" fill="#0A2540"/>
</g>
<defs>
<clipPath id="clip0_125_1397">
<rect width="48" height="48" fill="white"/>
</clipPath>
</defs>
</svg>
