<svg width="54" height="54" viewBox="0 0 54 54" fill="none" xmlns="http://www.w3.org/2000/svg">
<path d="M27 38.25V24.75" stroke="#1C274C" stroke-width="5" stroke-linecap="round"/>
<path d="M27 15.75C28.2426 15.75 29.25 16.7574 29.25 18C29.25 19.2426 28.2426 20.25 27 20.25C25.7574 20.25 24.75 19.2426 24.75 18C24.75 16.7574 25.7574 15.75 27 15.75Z" fill="#1C274C"/>
<path d="M49.5 27C49.5 37.6065 49.5 42.91 46.2049 46.2049C42.91 49.5 37.6065 49.5 27 49.5C16.3934 49.5 11.0901 49.5 7.79506 46.2049C4.5 42.91 4.5 37.6065 4.5 27C4.5 16.3934 4.5 11.0901 7.79506 7.79506C11.0901 4.5 16.3934 4.5 27 4.5C37.6065 4.5 42.91 4.5 46.2049 7.79506C48.3959 9.98598 49.1301 13.0647 49.376 18" stroke="#1C274C" stroke-width="5" stroke-linecap="round"/>
</svg>
