<svg width="54" height="54" viewBox="0 0 54 54" fill="none" xmlns="http://www.w3.org/2000/svg">
<g clip-path="url(#clip0_173_104)">
<path d="M14 11.297C6.22501 11.297 -0.1 17.622 -0.1 25.397C-0.1 29.1018 1.62899 34.4932 4.29614 39.1372L4.38286 39.0874L4.29615 39.1372C5.81647 41.784 7.45764 43.8713 9.10886 45.2981C10.7592 46.7241 12.4276 47.4969 14 47.4969C15.5725 47.4969 17.2409 46.7241 18.8912 45.2981C20.5424 43.8713 22.1836 41.784 23.7039 39.1372C26.3711 34.4932 28.0999 29.1017 28.0999 25.397C28.1001 17.622 21.7749 11.297 14 11.297ZM14 45.297C12.9532 45.297 11.6842 44.5969 10.3596 43.3849C9.0394 42.1768 7.6807 40.4756 6.45565 38.5084C4.00422 34.572 2.1 29.5905 2.1 25.397C2.1 18.8355 7.43804 13.497 14 13.497C20.562 13.497 25.9 18.8355 25.9 25.397C25.9 29.5904 23.9958 34.5719 21.5444 38.5084C20.3193 40.4755 18.9606 42.1768 17.6404 43.3848C16.3158 44.5969 15.0469 45.297 14 45.297Z" fill="#0A2540" stroke="#0A2540" stroke-width="0.2"/>
<path d="M14 18.297C10.0853 18.297 6.9 21.4819 6.9 25.3969C6.9 29.312 10.0854 32.4969 14 32.4969C17.9145 32.4969 21.0999 29.312 21.0999 25.3969C21.0999 21.4819 17.9145 18.297 14 18.297ZM14 30.2969C11.2983 30.2969 9.1 28.0984 9.1 25.3969C9.1 22.6953 11.2984 20.497 14 20.497C16.7016 20.497 18.8999 22.6953 18.8999 25.3969C18.8999 28.0986 16.7016 30.2969 14 30.2969Z" fill="#0A2540" stroke="#0A2540" stroke-width="0.2"/>
<path d="M44 1.29697C38.4311 1.29697 33.9 5.82754 33.9 11.397C33.9 12.6731 34.2844 14.253 34.9175 15.9006C35.5512 17.5497 36.4366 19.2735 37.4448 20.8391C38.4528 22.4043 39.5857 23.8149 40.7155 24.8354C41.8415 25.8525 42.9808 26.497 44 26.497C45.0193 26.497 46.1585 25.8525 47.2845 24.8354C48.4144 23.8149 49.5472 22.4043 50.5552 20.8391C51.5634 19.2735 52.4489 17.5497 53.0825 15.9006C53.7156 14.253 54.1 12.6731 54.1 11.397C54.1 5.82764 49.5689 1.29697 44 1.29697ZM44 24.297C43.7666 24.297 43.4647 24.1813 43.1077 23.951C42.7533 23.7223 42.3561 23.3881 41.9348 22.9689C41.0925 22.1307 40.1623 20.9609 39.2963 19.6397C38.4304 18.3187 37.6305 16.8493 37.0474 15.4129C36.4637 13.9751 36.1 12.5771 36.1 11.397C36.1 7.0411 39.6441 3.49698 44 3.49698C48.3559 3.49698 51.9 7.04109 51.9 11.397C51.9 12.5771 51.5363 13.9751 50.9526 15.4129C50.3695 16.8493 49.5696 18.3187 48.7038 19.6397C47.8377 20.9609 46.9076 22.1307 46.0653 22.9689C45.644 23.3881 45.2468 23.7223 44.8924 23.951C44.5353 24.1813 44.2334 24.297 44 24.297Z" fill="#0A2540" stroke="#0A2540" stroke-width="0.2"/>
<path d="M44 6.29697C41.1879 6.29697 38.9 8.58485 38.9 11.3969C38.9 14.209 41.188 16.4969 44 16.4969C46.812 16.4969 49.0999 14.2089 49.0999 11.3969C49.1 8.58485 46.812 6.29697 44 6.29697ZM44 14.297C42.4009 14.297 41.1 12.9961 41.1 11.397C41.1 9.79799 42.4009 8.49708 44 8.49708C45.599 8.49708 46.8999 9.79799 46.8999 11.397C46.9 12.996 45.599 14.297 44 14.297Z" fill="#0A2540" stroke="#0A2540" stroke-width="0.2"/>
<path d="M36.7048 38.5521L36.7048 38.5521C38.0366 39.6622 39.7834 41.2866 41.0621 43.089C42.3378 44.8872 43.1651 46.8878 42.6087 48.7389L42.6087 48.739C41.977 50.8387 39.7663 52.0853 36.1217 52.4902C34.7818 52.6395 33.4851 52.7032 32.2502 52.7032C25.0212 52.7032 19.8282 50.5203 19.5673 50.4081C19.0087 50.169 18.7509 49.5233 18.9893 48.9648L18.9893 48.9648C19.2276 48.4071 19.8719 48.1458 20.4317 48.3855L20.432 48.3857C20.5403 48.4308 27.326 51.2556 35.8788 50.3041C36.8248 50.1987 37.8792 50.0059 38.7505 49.6566C39.6253 49.3058 40.291 48.8072 40.5021 48.1056C40.6262 47.6928 40.6004 47.1901 40.4271 46.6139C40.254 46.0381 39.9355 45.3953 39.483 44.707C38.5781 43.3304 37.1446 41.783 35.2955 40.242C33.5779 38.8106 32.7459 37.1396 32.8456 35.279C32.8456 35.279 32.8456 35.2789 32.8456 35.2789L32.9455 35.2843L36.7048 38.5521ZM36.7048 38.5521C35.5152 37.5615 34.9831 36.5313 35.0424 35.3993L35.0424 35.3993M36.7048 38.5521L35.0424 35.3993M35.0424 35.3993C35.1089 34.1264 35.9336 32.8137 36.9117 31.7069C37.887 30.6032 38.9994 29.7214 39.6115 29.3117L39.6115 29.3117M35.0424 35.3993L39.6115 29.3117M39.6115 29.3117C40.1153 28.9739 40.2517 28.2914 39.9144 27.7864M39.6115 29.3117L39.9144 27.7864M39.9144 27.7864C39.5774 27.2812 38.8933 27.1439 38.3901 27.4818L39.9144 27.7864Z" fill="#0A2540" stroke="#0A2540" stroke-width="0.2"/>
</g>
<defs>
<clipPath id="clip0_173_104">
<rect width="54" height="54" fill="white"/>
</clipPath>
</defs>
</svg>
