<svg width="96" height="96" viewBox="0 0 96 96" fill="none" xmlns="http://www.w3.org/2000/svg">
<path d="M66.608 13.8202L69.2036 11.225C73.5036 6.92501 80.4752 6.92501 84.7752 11.225C89.0748 15.525 89.0748 22.4966 84.7752 26.7966L82.1796 29.3918M66.608 13.8202C66.608 13.8202 66.9324 19.3352 71.7988 24.2013C76.6648 29.0674 82.1796 29.3918 82.1796 29.3918M66.608 13.8202L42.7488 37.6797C41.1328 39.2958 40.3248 40.1036 39.6297 40.9948C38.81 42.0456 38.1072 43.1828 37.5338 44.386C37.0476 45.406 36.6863 46.49 35.9636 48.6584L33.6497 55.6M82.1796 29.3918L70.25 41.3216M33.6497 55.6L32.1524 60.0916C31.7968 61.1588 32.0745 62.3348 32.8698 63.1304C33.665 63.9256 34.8414 64.2032 35.9084 63.8476L40.4 62.3504M33.6497 55.6L40.4 62.3504M58.3204 53.2512C56.7044 54.8672 55.8964 55.6752 55.0052 56.3704C53.9544 57.19 52.8172 57.8928 51.614 58.4664C50.594 58.9524 49.51 59.3136 47.3416 60.0364L40.4 62.3504" stroke="#FF7900" stroke-width="5" stroke-linecap="round"/>
<path d="M29.9524 84.2664L30.4541 83.3991C35.0355 85.6744 40.1215 87.0864 45.5 87.4222V88.4241C39.9406 88.0855 34.6833 86.6252 29.9524 84.2664ZM88.4241 50.5C87.1832 70.8764 70.8764 87.1832 50.5 88.4241V87.4222C70.3237 86.1841 86.1841 70.3237 87.4222 50.5H88.4241ZM7.5759 45.5C8.81678 25.1237 25.1237 8.81678 45.5 7.5759V8.57783C25.6762 9.81593 9.81593 25.6762 8.57783 45.5H7.5759ZM11.7337 66.0476C9.37489 61.3167 7.91454 56.0595 7.57591 50.5H8.57782C8.91366 55.8785 10.3257 60.9645 12.6009 65.546L11.7337 66.0476Z" fill="#FF7900" stroke="#FF7900" stroke-width="5"/>
</svg>
