<svg width="96" height="96" viewBox="0 0 96 96" fill="none" xmlns="http://www.w3.org/2000/svg">
<path fill-rule="evenodd" clip-rule="evenodd" d="M8 37.812V0H45.408L88 42.5L72.824 57.676L80.22 76.608L30.86 96L8 37.812ZM15.044 44.804L33.12 90.816L75.04 74.344L69.736 60.764L50.5 80L15.044 44.804ZM12 4V36.144L50.488 74.352L82.34 42.504L43.752 4H12ZM61 37.172C59.34 35.512 57.54 34.704 55.488 34.704C53.176 34.704 50.58 35.668 46.804 37.916C44.076 39.56 42.332 40.256 40.98 40.256C39.536 40.256 36.648 38.62 37.136 35.38C37.344 34 38.136 32.596 39.424 31.304C42.032 28.696 45.6 27.912 48.528 30.876L51.504 27.9C49.6 26 47.12 24.732 44.46 24.732C42.196 24.732 39.96 25.644 37.808 27.44L35.304 24.936L32.512 27.732L35.124 30.34C32.848 33.644 31.756 38.424 35.428 42.088C39.472 46.132 44.18 44.252 49.08 41.16C51.48 39.644 53.412 38.908 54.98 38.908C57.336 38.912 59.7 40.9 59.292 43.94C59.084 45.484 58.252 46.996 56.808 48.428C55.004 50.232 53.192 51.144 51.42 51.144C49.748 51.144 48.432 50.376 47.224 49.296L44.268 52.252C46.12 54.084 48.596 55.264 51.208 55.264C53.384 55.264 55.556 54.46 57.656 52.876L59.816 55.028L62.604 52.24L60.524 50.156C63.496 46.572 65.152 41.32 61 37.168V37.172ZM24 8.004C28.416 8.004 32 11.588 32 16.004C32 20.42 28.416 24.004 24 24.004C19.584 24.004 16 20.42 16 16.004C16 11.588 19.584 8.004 24 8.004ZM24 12.004C26.208 12.004 28 13.796 28 16.004C28 18.212 26.208 20.004 24 20.004C21.792 20.004 20 18.212 20 16.004C20 13.796 21.792 12.004 24 12.004Z" fill="#FF7900"/>
</svg>
