<svg width="25" height="24" viewBox="0 0 25 24" fill="none" xmlns="http://www.w3.org/2000/svg">
<path d="M20.8329 4C21.5929 4 22.2109 4.608 22.2109 5.355C22.2109 5.886 21.8959 6.373 21.3679 6.657C20.1559 7.302 18.7539 9.392 18.3849 10.943C20.7649 11.481 22.1849 13.337 22.1849 15.507C22.1849 17.676 20.3259 20 17.5579 20C14.0569 20 12.4619 17.118 12.4619 14.439C12.4619 8.697 18.7819 4 20.8329 4ZM10.5819 4C11.3419 4 11.9599 4.608 11.9599 5.355C11.9599 5.886 11.6449 6.373 11.1169 6.657C9.90494 7.302 8.50294 9.392 8.13394 10.943C10.5139 11.481 11.9339 13.337 11.9339 15.507C11.9339 17.676 10.0749 20 7.30694 20C3.80594 20 2.21094 17.118 2.21094 14.439C2.21094 8.697 8.53094 4 10.5819 4ZM16.7919 12.428C16.6799 9.428 18.7759 6.674 20.4409 5.462C18.5299 6.244 13.9619 10.319 13.9619 14.439C13.9619 16.308 14.9039 18.49 17.5579 18.49C19.4289 18.49 20.6849 16.948 20.6849 15.507C20.6849 14.054 19.8229 12.341 16.7919 12.428ZM6.54094 12.428C6.42894 9.428 8.52494 6.674 10.1899 5.462C8.27894 6.244 3.71094 10.319 3.71094 14.439C3.71094 16.308 4.65294 18.49 7.30694 18.49C9.17794 18.49 10.4339 16.948 10.4339 15.507C10.4339 14.054 9.57194 12.341 6.54094 12.428Z" fill="#425466" fill-opacity="0.2"/>
</svg>
