<svg width="25" height="24" viewBox="0 0 25 24" fill="none" xmlns="http://www.w3.org/2000/svg">
<path d="M3.58894 20C2.82894 20 2.21094 19.392 2.21094 18.645C2.21094 18.114 2.52594 17.627 3.05394 17.343C4.26594 16.698 5.66794 14.608 6.03694 13.057C3.65694 12.519 2.23694 10.663 2.23694 8.493C2.23694 6.324 4.09594 4 6.86394 4C10.3649 4 11.9599 6.882 11.9599 9.561C11.9599 15.303 5.63994 20 3.58894 20ZM13.8399 20C13.0799 20 12.4619 19.392 12.4619 18.645C12.4619 18.114 12.7769 17.627 13.3049 17.343C14.5169 16.698 15.9189 14.608 16.2879 13.057C13.9079 12.519 12.4879 10.663 12.4879 8.493C12.4879 6.324 14.3469 4 17.1149 4C20.6159 4 22.2109 6.882 22.2109 9.561C22.2109 15.303 15.8909 20 13.8399 20ZM7.62994 11.572C7.74194 14.572 5.64594 17.326 3.98094 18.538C5.89194 17.756 10.4599 13.681 10.4599 9.561C10.4599 7.692 9.51794 5.51 6.86394 5.51C4.99294 5.51 3.73694 7.052 3.73694 8.493C3.73694 9.946 4.59894 11.659 7.62994 11.572ZM17.8809 11.572C17.9929 14.572 15.8969 17.326 14.2319 18.538C16.1429 17.756 20.7109 13.681 20.7109 9.561C20.7109 7.692 19.7689 5.51 17.1149 5.51C15.2439 5.51 13.9879 7.052 13.9879 8.493C13.9879 9.946 14.8499 11.659 17.8809 11.572Z" fill="#425466" fill-opacity="0.2"/>
</svg>
