<svg width="15" height="15" viewBox="0 0 15 15" fill="none" xmlns="http://www.w3.org/2000/svg">
<path d="M7.5 2.54768e-06C6.01664 2.54768e-06 4.56659 0.43987 3.33323 1.26398C2.09986 2.08809 1.13856 3.25943 0.570907 4.62988C0.00324962 6.00032 -0.145275 7.50832 0.144114 8.96318C0.433503 10.418 1.14781 11.7544 2.1967 12.8033C3.24559 13.8522 4.58197 14.5665 6.03682 14.8559C7.49168 15.1453 8.99968 14.9967 10.3701 14.4291C11.7406 13.8614 12.9119 12.9001 13.736 11.6668C14.5601 10.4334 15 8.98336 15 7.5C15.0008 6.51486 14.8074 5.53922 14.4307 4.62891C14.0541 3.71861 13.5017 2.89149 12.8051 2.19489C12.1085 1.49829 11.2814 0.945874 10.3711 0.569251C9.46078 0.192629 8.48514 -0.00080975 7.5 2.54768e-06ZM7.5 13.2353C6.36567 13.2353 5.25681 12.8989 4.31364 12.2687C3.37048 11.6385 2.63537 10.7428 2.20128 9.6948C1.76719 8.64681 1.65361 7.49364 1.87491 6.3811C2.09621 5.26856 2.64244 4.24663 3.44454 3.44454C4.24663 2.64244 5.26856 2.09621 6.3811 1.87491C7.49364 1.65361 8.64681 1.76719 9.6948 2.20128C10.7428 2.63537 11.6385 3.37048 12.2687 4.31364C12.8989 5.25681 13.2353 6.36567 13.2353 7.5C13.2368 8.25359 13.0895 9.00007 12.8018 9.69659C12.5141 10.3931 12.0917 11.026 11.5588 11.5588C11.026 12.0917 10.3931 12.5141 9.69659 12.8018C9.00007 13.0895 8.25359 13.2368 7.5 13.2353Z" fill="#AA0000"/>
<path d="M10.0147 5.20598C9.93504 5.12237 9.83921 5.05581 9.73304 5.01033C9.62687 4.96486 9.51257 4.94141 9.39707 4.94141C9.28157 4.94141 9.16728 4.96486 9.06111 5.01033C8.95494 5.05581 8.85911 5.12237 8.77943 5.20598L7.50002 6.48539L6.26472 5.2501C6.10035 5.08901 5.87905 4.9993 5.6489 5.00047C5.41876 5.00163 5.19837 5.09357 5.03564 5.25631C4.8729 5.41904 4.78096 5.63943 4.7798 5.86957C4.77863 6.09972 4.86834 6.32102 5.02943 6.48539L6.26472 7.72069L5.02943 8.95598C4.86834 9.12035 4.77863 9.34166 4.7798 9.5718C4.78096 9.80194 4.8729 10.0223 5.03564 10.1851C5.19837 10.3478 5.41876 10.4397 5.6489 10.4409C5.87905 10.4421 6.10035 10.3524 6.26472 10.1913L7.50002 8.95598L8.73531 10.1913C8.89968 10.3524 9.12099 10.4421 9.35113 10.4409C9.58127 10.4397 9.80166 10.3478 9.9644 10.1851C10.1271 10.0223 10.2191 9.80194 10.2202 9.5718C10.2214 9.34166 10.1317 9.12035 9.9706 8.95598L8.73531 7.72069L9.9706 6.48539C10.136 6.31597 10.2323 6.09089 10.2404 5.85423C10.2486 5.61757 10.1681 5.3864 10.0147 5.20598Z" fill="#AA0000"/>
</svg>
