<svg width="16" height="16" viewBox="0 0 16 16" fill="none" xmlns="http://www.w3.org/2000/svg">
<path d="M13.5502 7.15646V2.69796L12.0792 4.16996C10.9142 3.00746 9.56271 2.41846 8.02421 2.41846C4.95121 2.41846 2.45071 4.92346 2.44971 7.99996C2.45021 11.076 4.95121 13.579 8.02471 13.58C10.1627 13.58 12.7092 12.4665 13.4427 9.34096L13.4567 9.27996H11.8417L11.8307 9.31396C11.2917 10.935 9.76171 12.0245 8.02421 12.0245C7.49549 12.0257 6.97179 11.922 6.48337 11.7196C5.99495 11.5171 5.55152 11.2199 5.17871 10.845C4.80395 10.4723 4.50682 10.029 4.30453 9.54075C4.10224 9.0525 3.9988 8.52896 4.00021 8.00046C4.00021 5.78146 5.80571 3.97596 8.02521 3.97596C9.05971 3.97596 9.84421 4.26596 10.9872 5.26246L9.09121 7.15696H13.5502V7.15646Z" fill="#0A2540"/>
</svg>
