<svg width="44" height="44" viewBox="0 0 44 44" fill="none" xmlns="http://www.w3.org/2000/svg">
<path d="M42.3702 36.773L33.2457 27.6485C35.0148 24.8618 36.0378 21.5582 36.0378 18.0217C36.0378 8.085 27.9547 0 18.018 0C8.08133 0 0 8.085 0 18.0217C0 27.9583 8.08133 36.0433 18.0198 36.0433C21.3822 36.0433 24.5318 35.1175 27.2268 33.5078L36.432 42.713C40.3627 46.6382 46.3027 40.7037 42.3702 36.773ZM5.58617 18.0217C5.58617 11.1668 11.165 5.588 18.0198 5.588C24.8747 5.588 30.4535 11.165 30.4535 18.0217C30.4535 24.8783 24.8747 30.4553 18.0198 30.4553C11.165 30.4553 5.58617 24.8765 5.58617 18.0217ZM9.27117 14.7877C12.9085 6.35617 25.1552 7.33333 27.4615 16.1608C22.8158 10.7085 14.641 10.1218 9.27117 14.7877Z" fill="#0A2540"/>
</svg>
