<svg width="96" height="96" viewBox="0 0 96 96" fill="none" xmlns="http://www.w3.org/2000/svg">
<g clip-path="url(#clip0_138_1254)">
<path d="M27.7349 21.0419C28.0707 17.6762 29.2477 14.449 31.1577 11.6575C33.0677 8.86602 35.6492 6.59984 38.6646 5.06757C41.68 3.53531 45.0323 2.78621 48.4134 2.88924C51.7942 2.99227 55.0946 3.9441 58.0111 5.65712C60.9276 7.37019 63.3664 9.78935 65.1028 12.692C66.8393 15.5946 67.8177 18.8874 67.9479 22.2673C68.0781 25.6472 67.3561 29.0055 65.8482 32.0332C64.3686 35.0039 62.179 37.5626 59.4749 39.4831" stroke="#FF7900" stroke-width="6" stroke-linecap="round" stroke-linejoin="round"/>
<path d="M30.4873 12.8743C33.6078 16.0958 37.3443 18.6568 41.4745 20.4049C45.6048 22.1531 50.0446 23.0527 54.5297 23.0503C58.9407 23.0546 63.308 22.186 67.3799 20.4957" stroke="#FF7900" stroke-width="6" stroke-linecap="round" stroke-linejoin="round"/>
<path d="M43.481 37.4502C42.3421 37.4502 41.2285 37.788 40.2811 38.421C39.3339 39.0539 38.5956 39.9536 38.1596 41.0061C37.7237 42.0583 37.6096 43.2164 37.8319 44.3339C38.0541 45.4513 38.6027 46.4777 39.4083 47.283C40.2138 48.0886 41.24 48.6373 42.3574 48.8597C43.4749 49.0816 44.633 48.9676 45.6856 48.5317C46.7381 48.0959 47.6374 47.3575 48.2703 46.4101C48.9035 45.4632 49.241 44.3492 49.241 43.2103C49.241 41.6827 48.6343 40.2174 47.5541 39.1372C46.4739 38.057 45.009 37.4502 43.481 37.4502Z" stroke="#FF7900" stroke-width="6" stroke-linecap="round" stroke-linejoin="round"/>
<path d="M20.4409 27.5505V31.6901C20.4409 34.7454 21.6546 37.6755 23.8151 39.836C25.9755 41.9963 28.9056 43.2102 31.9609 43.2102H37.4262" stroke="#FF7900" stroke-width="6" stroke-linecap="round" stroke-linejoin="round"/>
<path d="M85.2498 89.2903C85.2502 82.442 83.3702 75.7255 79.8151 69.8726C76.2746 64.0431 71.2081 59.293 65.1636 56.1357" stroke="#FF7900" stroke-width="6" stroke-linecap="round" stroke-linejoin="round"/>
<path d="M10.3687 89.2903C10.3679 82.4428 12.2466 75.727 15.8001 69.8737C19.3359 64.0499 24.3948 59.3029 30.4301 56.1445" stroke="#FF7900" stroke-width="6" stroke-linecap="round" stroke-linejoin="round"/>
</g>
<defs>
<clipPath id="clip0_138_1254">
<rect width="96" height="96" fill="white"/>
</clipPath>
</defs>
</svg>
