<svg width="96" height="96" viewBox="0 0 96 96" fill="none" xmlns="http://www.w3.org/2000/svg">
<path fill-rule="evenodd" clip-rule="evenodd" d="M37.4504 14.1538C30.4103 14.1538 24.7032 19.861 24.7032 26.9011C24.7032 33.9412 30.4103 39.6484 37.4504 39.6484C44.4907 39.6484 50.1975 33.9412 50.1975 26.9011C50.1975 19.861 44.4907 14.1538 37.4504 14.1538ZM18.5493 26.9011C18.5493 16.4623 27.0116 8 37.4504 8C47.8891 8 56.3515 16.4623 56.3515 26.9011C56.3515 37.3399 47.8891 45.8024 37.4504 45.8024C27.0116 45.8024 18.5493 37.3399 18.5493 26.9011Z" fill="#FF7900"/>
<path fill-rule="evenodd" clip-rule="evenodd" d="M29.6461 61.6264C21.09 61.6264 14.1538 68.5624 14.1538 77.1188C14.1538 77.5444 14.2273 77.8384 14.301 78.0052C14.3604 78.1392 14.4042 78.1648 14.4236 78.176C16.5341 79.4164 22.6053 81.846 37.4506 81.846C52.2956 81.846 58.3652 79.4172 60.4756 78.1772C60.4952 78.1656 60.5408 78.1392 60.6 78.0052C60.674 77.8384 60.7472 77.5444 60.7472 77.1188C60.7472 68.5624 53.8112 61.6264 45.2548 61.6264H29.6461ZM8 77.1188C8 65.164 17.6913 55.4724 29.6461 55.4724H45.2548C57.2096 55.4724 66.9012 65.164 66.9012 77.1188C66.9012 79.1776 66.2052 81.9476 63.5936 83.4824C60.1524 85.5052 52.8356 88 37.4506 88C22.0656 88 14.7489 85.5052 11.3073 83.4824C8.69592 81.9476 8 79.1776 8 77.1188Z" fill="#FF7900"/>
<path fill-rule="evenodd" clip-rule="evenodd" d="M62.1726 15.5488C62.6162 13.9083 64.3054 12.9379 65.9458 13.3813C72.733 15.2157 77.4506 21.9179 77.4506 29.5384C77.4506 37.5905 71.9318 44.8504 64.1914 45.7804C62.5042 45.9828 60.9722 44.7796 60.7694 43.0924C60.5666 41.4052 61.7702 39.8729 63.4574 39.6703C67.585 39.1745 71.297 35.0296 71.297 29.5384C71.297 24.3285 68.1026 20.3388 64.3402 19.322C62.6998 18.8786 61.7294 17.1893 62.1726 15.5488Z" fill="#FF7900"/>
<path fill-rule="evenodd" clip-rule="evenodd" d="M71.3538 57.9603C71.679 56.2923 73.295 55.2039 74.963 55.5295C82.535 57.0063 88.0002 63.6399 88.0002 71.3551V73.4939C88.0002 75.3875 87.4322 78.0847 84.9618 79.6635C83.2986 80.7267 80.7194 81.8595 76.7422 82.6639C75.0766 83.0011 73.4534 81.9239 73.1162 80.2583C72.7794 78.5927 73.8562 76.9695 75.5218 76.6323C78.915 75.9459 80.7486 75.0531 81.6474 74.4787L81.6546 74.4715C81.6614 74.4631 81.6854 74.4307 81.715 74.3583C81.7806 74.1991 81.8462 73.9135 81.8462 73.4939V71.3551C81.8462 66.5847 78.467 62.4827 73.785 61.5695C72.117 61.2439 71.0286 59.6283 71.3538 57.9603Z" fill="#FF7900"/>
</svg>
