<svg width="36" height="36" viewBox="0 0 36 36" fill="none" xmlns="http://www.w3.org/2000/svg">
<g clip-path="url(#clip0_81_41)">
<path fill-rule="evenodd" clip-rule="evenodd" d="M18 0C27.9345 0 36 8.0655 36 18C36 27.9345 27.9345 36 18 36C8.0655 36 0 27.9345 0 18C0 8.0655 8.0655 0 18 0ZM30.1905 29.115C29.7675 28.5135 29.0325 28.134 27.7545 27.84C21.9825 26.481 21.609 25.5885 21.2265 24.7515C20.838 23.904 20.9415 22.9065 21.534 21.786C24.123 16.9005 24.669 12.75 23.0745 10.101C22.0635 8.4225 20.262 7.5 18 7.5C15.7185 7.5 13.902 8.439 12.8865 10.1445C11.2875 12.828 11.847 16.9605 14.46 21.78C15.063 22.893 15.174 23.889 14.79 24.741C14.3925 25.62 13.8735 26.526 8.2425 27.84C6.9645 28.134 6.2295 28.5135 5.808 29.112C8.826 32.4225 13.173 34.5 18 34.5C22.827 34.5 27.1725 32.4225 30.1905 29.115ZM31.1655 27.942C33.258 25.176 34.5 21.732 34.5 18C34.5 8.8935 27.1065 1.5 18 1.5C8.8935 1.5 1.5 8.8935 1.5 18C1.5 21.7305 2.7405 25.1745 4.833 27.939C5.4465 27.261 6.4065 26.724 7.9065 26.3775C10.944 25.6845 12.9705 25.1235 13.4235 24.1245C13.6065 23.7165 13.515 23.1825 13.1415 22.494C10.266 17.1915 9.7185 12.5325 11.5965 9.3765C12.876 7.23 15.2085 6 18 6C20.7675 6 23.0865 7.212 24.36 9.327C26.2365 12.4455 25.704 17.1195 22.86 22.488C22.4925 23.1825 22.404 23.7195 22.5915 24.129C23.049 25.131 25.0575 25.686 28.092 26.3775C29.592 26.7225 30.552 27.2625 31.1655 27.942Z" fill="white"/>
</g>
<defs>
<clipPath id="clip0_81_41">
<rect width="36" height="36" fill="white"/>
</clipPath>
</defs>
</svg>
